<svg width="20" height="20" viewBox="0 0 20 20" fill="none" xmlns="http://www.w3.org/2000/svg">
<path fill-rule="evenodd" clip-rule="evenodd" d="M19.5984 9.99999C19.5984 15.3019 15.3004 19.6 9.99844 19.6C4.6965 19.6 0.398438 15.3019 0.398438 9.99999C0.398438 4.69806 4.6965 0.399994 9.99844 0.399994C15.3004 0.399994 19.5984 4.69806 19.5984 9.99999ZM11.1984 5.19999C11.1984 5.86274 10.6612 6.39999 9.99844 6.39999C9.3357 6.39999 8.79844 5.86274 8.79844 5.19999C8.79844 4.53725 9.3357 3.99999 9.99844 3.99999C10.6612 3.99999 11.1984 4.53725 11.1984 5.19999ZM8.79844 8.79999C8.1357 8.79999 7.59844 9.33725 7.59844 9.99999C7.59844 10.6627 8.1357 11.2 8.79844 11.2V14.8C8.79844 15.4627 9.3357 16 9.99844 16H11.1984C11.8612 16 12.3984 15.4627 12.3984 14.8C12.3984 14.1373 11.8612 13.6 11.1984 13.6V9.99999C11.1984 9.33725 10.6612 8.79999 9.99844 8.79999H8.79844Z" fill="#EB3800"/>
</svg>
