<svg width="23" height="24" viewBox="0 0 23 24" fill="none" xmlns="http://www.w3.org/2000/svg">
<path d="M22.65 4.44835C22.65 4.14835 22.5375 3.84835 22.3125 3.62335C21.8625 3.17335 21.4125 2.72335 21 2.27335C20.5875 1.86085 20.2125 1.44835 19.8 1.07335C19.6125 0.84835 19.3875 0.69835 19.0875 0.66085C18.75 0.62335 18.45 0.69835 18.1875 0.92335L15.6375 3.47335H2.3625C1.0875 3.47335 0 4.52335 0 5.83585V20.9859C0 22.2609 1.05 23.3484 2.3625 23.3484H17.55C18.825 23.3484 19.9125 22.2984 19.9125 20.9859V7.67335L22.35 5.23585C22.5375 5.01085 22.65 4.74835 22.65 4.44835ZM11.625 13.4859C11.5875 13.5234 11.5875 13.5233 11.55 13.5233L8.85 14.4234L9.75 11.7234C9.75 11.6859 9.7875 11.6859 9.7875 11.6484L16.5375 4.89835L18.4125 6.73585L11.625 13.4859ZM18.1875 20.9859C18.1875 21.3609 17.8875 21.6609 17.5125 21.6609H2.3625C1.9875 21.6609 1.6875 21.3609 1.6875 20.9859V5.79835C1.6875 5.42335 1.9875 5.12335 2.3625 5.12335H13.9125L8.5875 10.4859C8.4 10.6734 8.2125 10.9359 8.1375 11.2359L6.75 15.4359C6.6375 15.7359 6.7125 15.9984 6.8625 16.2609C6.975 16.4109 7.2 16.6359 7.6125 16.6359H7.7625L12.075 15.2108C12.3375 15.1358 12.6 14.9484 12.7875 14.7609L18.1875 9.36085V20.9859ZM19.575 5.57335L17.7 3.73585L18.8625 2.57335C19.1625 2.87335 20.4 4.11085 20.7 4.44835L19.575 5.57335Z" fill="#EB3800"/>
</svg>
