<svg width="80" height="80" viewBox="0 0 80 80" fill="none" xmlns="http://www.w3.org/2000/svg">
<g filter="url(#filter0_d_56_718)">
<path d="M75.0376 39.5754H5.0376L9.3376 28.8004C9.7626 27.7254 10.7876 27.0254 11.9376 27.0254H68.1376C69.2876 27.0254 70.3126 27.7254 70.7376 28.8004L75.0376 39.5754Z" fill="url(#paint0_linear_56_718)"/>
<path d="M75.0376 39.5754H5.0376L9.3376 28.8004C9.7626 27.7254 10.7876 27.0254 11.9376 27.0254H68.1376C69.2876 27.0254 70.3126 27.7254 70.7376 28.8004L75.0376 39.5754Z" fill="url(#paint1_linear_56_718)"/>
</g>
<path d="M22.6251 39.5498H5.0376V74.5498H22.6251V39.5498Z" fill="url(#paint2_linear_56_718)"/>
<path d="M22.6251 39.5498H5.0376V74.5498H22.6251V39.5498Z" fill="url(#paint3_linear_56_718)"/>
<path d="M22.6251 39.5498H5.0376V74.5498H22.6251V39.5498Z" fill="url(#paint4_linear_56_718)"/>
<path d="M22.6251 39.5498H5.0376V74.5498H22.6251V39.5498Z" fill="url(#paint5_linear_56_718)"/>
<path d="M57.5376 39.5498H75.0376V74.5498H57.5376V39.5498Z" fill="url(#paint6_linear_56_718)"/>
<path d="M57.5376 39.5498H75.0376V74.5498H57.5376V39.5498Z" fill="url(#paint7_linear_56_718)"/>
<path d="M57.5376 39.5498H75.0376V74.5498H57.5376V39.5498Z" fill="url(#paint8_linear_56_718)"/>
<path d="M57.5376 39.5498H75.0376V74.5498H57.5376V39.5498Z" fill="url(#paint9_radial_56_718)"/>
<g filter="url(#filter1_f_56_718)">
<path d="M17.5901 40H24.3476V43.505H17.5901V40Z" fill="#8E5745"/>
</g>
<path d="M56.8375 34.4497L41.4625 19.2997C41.279 19.1153 41.0608 18.9689 40.8206 18.8691C40.5803 18.7692 40.3227 18.7178 40.0625 18.7178C39.8023 18.7178 39.5447 18.7692 39.3044 18.8691C39.0642 18.9689 38.846 19.1153 38.6625 19.2997L23.2875 34.4497C22.8332 34.9 22.573 35.5101 22.5625 36.1497V74.5747H57.5625V36.1247C57.5375 35.4997 57.2875 34.8997 56.8375 34.4497Z" fill="url(#paint10_linear_56_718)"/>
<path d="M56.8375 34.4497L41.4625 19.2997C41.279 19.1153 41.0608 18.9689 40.8206 18.8691C40.5803 18.7692 40.3227 18.7178 40.0625 18.7178C39.8023 18.7178 39.5447 18.7692 39.3044 18.8691C39.0642 18.9689 38.846 19.1153 38.6625 19.2997L23.2875 34.4497C22.8332 34.9 22.573 35.5101 22.5625 36.1497V74.5747H57.5625V36.1247C57.5375 35.4997 57.2875 34.8997 56.8375 34.4497Z" fill="url(#paint11_linear_56_718)"/>
<path d="M56.8375 34.4497L41.4625 19.2997C41.279 19.1153 41.0608 18.9689 40.8206 18.8691C40.5803 18.7692 40.3227 18.7178 40.0625 18.7178C39.8023 18.7178 39.5447 18.7692 39.3044 18.8691C39.0642 18.9689 38.846 19.1153 38.6625 19.2997L23.2875 34.4497C22.8332 34.9 22.573 35.5101 22.5625 36.1497V74.5747H57.5625V36.1247C57.5375 35.4997 57.2875 34.8997 56.8375 34.4497Z" fill="url(#paint12_linear_56_718)"/>
<path d="M56.8375 34.4497L41.4625 19.2997C41.279 19.1153 41.0608 18.9689 40.8206 18.8691C40.5803 18.7692 40.3227 18.7178 40.0625 18.7178C39.8023 18.7178 39.5447 18.7692 39.3044 18.8691C39.0642 18.9689 38.846 19.1153 38.6625 19.2997L23.2875 34.4497C22.8332 34.9 22.573 35.5101 22.5625 36.1497V74.5747H57.5625V36.1247C57.5375 35.4997 57.2875 34.8997 56.8375 34.4497Z" fill="url(#paint13_linear_56_718)"/>
<path d="M56.8375 34.4497L41.4625 19.2997C41.279 19.1153 41.0608 18.9689 40.8206 18.8691C40.5803 18.7692 40.3227 18.7178 40.0625 18.7178C39.8023 18.7178 39.5447 18.7692 39.3044 18.8691C39.0642 18.9689 38.846 19.1153 38.6625 19.2997L23.2875 34.4497C22.8332 34.9 22.573 35.5101 22.5625 36.1497V74.5747H57.5625V36.1247C57.5375 35.4997 57.2875 34.8997 56.8375 34.4497Z" fill="url(#paint14_linear_56_718)"/>
<path d="M56.8375 34.4497L41.4625 19.2997C41.279 19.1153 41.0608 18.9689 40.8206 18.8691C40.5803 18.7692 40.3227 18.7178 40.0625 18.7178C39.8023 18.7178 39.5447 18.7692 39.3044 18.8691C39.0642 18.9689 38.846 19.1153 38.6625 19.2997L23.2875 34.4497C22.8332 34.9 22.573 35.5101 22.5625 36.1497V74.5747H57.5625V36.1247C57.5375 35.4997 57.2875 34.8997 56.8375 34.4497Z" fill="url(#paint15_radial_56_718)"/>
<path d="M56.8375 34.4497L41.4625 19.2997C41.279 19.1153 41.0608 18.9689 40.8206 18.8691C40.5803 18.7692 40.3227 18.7178 40.0625 18.7178C39.8023 18.7178 39.5447 18.7692 39.3044 18.8691C39.0642 18.9689 38.846 19.1153 38.6625 19.2997L23.2875 34.4497C22.8332 34.9 22.573 35.5101 22.5625 36.1497V74.5747H57.5625V36.1247C57.5375 35.4997 57.2875 34.8997 56.8375 34.4497Z" fill="url(#paint16_radial_56_718)"/>
<g filter="url(#filter2_d_56_718)">
<path d="M64.3376 52.0498H60.7376C60.3626 52.0498 60.0376 51.7248 60.0376 51.3498V45.2498C60.0376 44.8748 60.3626 44.5498 60.7376 44.5498H64.3376C64.7126 44.5498 65.0376 44.8748 65.0376 45.2498V51.3498C65.0376 51.7498 64.7376 52.0498 64.3376 52.0498Z" fill="white"/>
<path d="M64.3376 52.0498H60.7376C60.3626 52.0498 60.0376 51.7248 60.0376 51.3498V45.2498C60.0376 44.8748 60.3626 44.5498 60.7376 44.5498H64.3376C64.7126 44.5498 65.0376 44.8748 65.0376 45.2498V51.3498C65.0376 51.7498 64.7376 52.0498 64.3376 52.0498Z" fill="white"/>
</g>
<g filter="url(#filter3_d_56_718)">
<path d="M71.8376 52.0498H68.2376C67.8626 52.0498 67.5376 51.7248 67.5376 51.3498V45.2498C67.5376 44.8748 67.8626 44.5498 68.2376 44.5498H71.8376C72.2126 44.5498 72.5376 44.8748 72.5376 45.2498V51.3498C72.5376 51.7498 72.2376 52.0498 71.8376 52.0498Z" fill="white"/>
<path d="M71.8376 52.0498H68.2376C67.8626 52.0498 67.5376 51.7248 67.5376 51.3498V45.2498C67.5376 44.8748 67.8626 44.5498 68.2376 44.5498H71.8376C72.2126 44.5498 72.5376 44.8748 72.5376 45.2498V51.3498C72.5376 51.7498 72.2376 52.0498 71.8376 52.0498Z" fill="white"/>
</g>
<g filter="url(#filter4_d_56_718)">
<path d="M64.3376 62.0498H60.7376C60.3626 62.0498 60.0376 61.7248 60.0376 61.3498V55.2498C60.0376 54.8748 60.3626 54.5498 60.7376 54.5498H64.3376C64.7126 54.5498 65.0376 54.8748 65.0376 55.2498V61.3498C65.0376 61.7498 64.7376 62.0498 64.3376 62.0498Z" fill="white"/>
<path d="M64.3376 62.0498H60.7376C60.3626 62.0498 60.0376 61.7248 60.0376 61.3498V55.2498C60.0376 54.8748 60.3626 54.5498 60.7376 54.5498H64.3376C64.7126 54.5498 65.0376 54.8748 65.0376 55.2498V61.3498C65.0376 61.7498 64.7376 62.0498 64.3376 62.0498Z" fill="white"/>
</g>
<g filter="url(#filter5_d_56_718)">
<path d="M71.8376 62.0498H68.2376C67.8626 62.0498 67.5376 61.7248 67.5376 61.3498V55.2498C67.5376 54.8748 67.8626 54.5498 68.2376 54.5498H71.8376C72.2126 54.5498 72.5376 54.8748 72.5376 55.2498V61.3498C72.5376 61.7498 72.2376 62.0498 71.8376 62.0498Z" fill="white"/>
<path d="M71.8376 62.0498H68.2376C67.8626 62.0498 67.5376 61.7248 67.5376 61.3498V55.2498C67.5376 54.8748 67.8626 54.5498 68.2376 54.5498H71.8376C72.2126 54.5498 72.5376 54.8748 72.5376 55.2498V61.3498C72.5376 61.7498 72.2376 62.0498 71.8376 62.0498Z" fill="white"/>
</g>
<g filter="url(#filter6_d_56_718)">
<path d="M11.8876 52.0498H8.28765C7.91265 52.0498 7.58765 51.7248 7.58765 51.3498V45.2498C7.58765 44.8748 7.91265 44.5498 8.28765 44.5498H11.8876C12.2626 44.5498 12.5876 44.8748 12.5876 45.2498V51.3498C12.5876 51.7498 12.2876 52.0498 11.8876 52.0498Z" fill="white"/>
<path d="M11.8876 52.0498H8.28765C7.91265 52.0498 7.58765 51.7248 7.58765 51.3498V45.2498C7.58765 44.8748 7.91265 44.5498 8.28765 44.5498H11.8876C12.2626 44.5498 12.5876 44.8748 12.5876 45.2498V51.3498C12.5876 51.7498 12.2876 52.0498 11.8876 52.0498Z" fill="white"/>
</g>
<g filter="url(#filter7_d_56_718)">
<path d="M19.3876 52.0498H15.7876C15.4126 52.0498 15.0876 51.7248 15.0876 51.3498V45.2498C15.0876 44.8748 15.4126 44.5498 15.7876 44.5498H19.3876C19.7626 44.5498 20.0876 44.8748 20.0876 45.2498V51.3498C20.0876 51.7498 19.7876 52.0498 19.3876 52.0498Z" fill="white"/>
<path d="M19.3876 52.0498H15.7876C15.4126 52.0498 15.0876 51.7248 15.0876 51.3498V45.2498C15.0876 44.8748 15.4126 44.5498 15.7876 44.5498H19.3876C19.7626 44.5498 20.0876 44.8748 20.0876 45.2498V51.3498C20.0876 51.7498 19.7876 52.0498 19.3876 52.0498Z" fill="white"/>
</g>
<g filter="url(#filter8_d_56_718)">
<path d="M11.8876 62.0498H8.28765C7.91265 62.0498 7.58765 61.7248 7.58765 61.3498V55.2498C7.58765 54.8748 7.91265 54.5498 8.28765 54.5498H11.8876C12.2626 54.5498 12.5876 54.8748 12.5876 55.2498V61.3498C12.5876 61.7498 12.2876 62.0498 11.8876 62.0498Z" fill="white"/>
<path d="M11.8876 62.0498H8.28765C7.91265 62.0498 7.58765 61.7248 7.58765 61.3498V55.2498C7.58765 54.8748 7.91265 54.5498 8.28765 54.5498H11.8876C12.2626 54.5498 12.5876 54.8748 12.5876 55.2498V61.3498C12.5876 61.7498 12.2876 62.0498 11.8876 62.0498Z" fill="white"/>
</g>
<g filter="url(#filter9_d_56_718)">
<path d="M19.3876 62.0498H15.7876C15.4126 62.0498 15.0876 61.7248 15.0876 61.3498V55.2498C15.0876 54.8748 15.4126 54.5498 15.7876 54.5498H19.3876C19.7626 54.5498 20.0876 54.8748 20.0876 55.2498V61.3498C20.0876 61.7498 19.7876 62.0498 19.3876 62.0498Z" fill="white"/>
<path d="M19.3876 62.0498H15.7876C15.4126 62.0498 15.0876 61.7248 15.0876 61.3498V55.2498C15.0876 54.8748 15.4126 54.5498 15.7876 54.5498H19.3876C19.7626 54.5498 20.0876 54.8748 20.0876 55.2498V61.3498C20.0876 61.7498 19.7876 62.0498 19.3876 62.0498Z" fill="white"/>
</g>
<g filter="url(#filter10_dd_56_718)">
<path d="M40.0376 44.5498C41.0225 44.5498 41.9978 44.3558 42.9077 43.9789C43.8177 43.602 44.6445 43.0495 45.3409 42.3531C46.0373 41.6567 46.5898 40.8299 46.9667 39.9199C47.3436 39.01 47.5376 38.0347 47.5376 37.0498C47.5376 36.0649 47.3436 35.0896 46.9667 34.1797C46.5898 33.2697 46.0373 32.4429 45.3409 31.7465C44.6445 31.0501 43.8177 30.4976 42.9077 30.1207C41.9978 29.7438 41.0225 29.5498 40.0376 29.5498C38.0485 29.5498 36.1408 30.34 34.7343 31.7465C33.3278 33.153 32.5376 35.0607 32.5376 37.0498C32.5376 39.0389 33.3278 40.9466 34.7343 42.3531C36.1408 43.7596 38.0485 44.5498 40.0376 44.5498Z" fill="#EDDEF1"/>
</g>
<path d="M40.0376 38.0748C39.3376 38.0748 38.7876 37.5248 38.7876 36.8248V33.2998C38.7876 32.5998 39.3376 32.0498 40.0376 32.0498C40.7376 32.0498 41.2876 32.5998 41.2876 33.2998V36.8248C41.2876 37.5248 40.7126 38.0748 40.0376 38.0748Z" fill="url(#paint17_radial_56_718)"/>
<path d="M40.0376 38.0748C39.3376 38.0748 38.7876 37.5248 38.7876 36.8248V33.2998C38.7876 32.5998 39.3376 32.0498 40.0376 32.0498C40.7376 32.0498 41.2876 32.5998 41.2876 33.2998V36.8248C41.2876 37.5248 40.7126 38.0748 40.0376 38.0748Z" fill="url(#paint18_radial_56_718)"/>
<path d="M43.7376 42.0501C43.5737 42.0521 43.4111 42.0197 43.2604 41.9552C43.1097 41.8906 42.9742 41.7952 42.8626 41.6751L39.1626 37.9751C38.6626 37.4751 38.6626 36.7001 39.1626 36.2001C39.6626 35.7001 40.4376 35.7001 40.9376 36.2001L44.6376 39.9001C45.1376 40.4001 45.1376 41.1751 44.6376 41.6751C44.3626 41.9251 44.0626 42.0501 43.7376 42.0501Z" fill="url(#paint19_linear_56_718)"/>
<g filter="url(#filter11_dd_56_718)">
<path d="M60.0376 34.9001C60.0376 34.1501 59.7376 33.4501 59.2126 32.9251L41.6376 15.3501C41.2114 14.9293 40.6365 14.6934 40.0376 14.6934C39.4387 14.6934 38.8638 14.9293 38.4376 15.3501L20.8626 32.9251C20.3376 33.4501 20.0376 34.1751 20.0376 34.9001V39.5751C20.0376 40.2751 20.5876 40.8251 21.2876 40.8251C21.9876 40.8251 22.5376 40.2751 22.5376 39.5751V36.4251C22.5376 35.7751 22.7876 35.1501 23.2626 34.7001L38.6376 19.3251C38.8211 19.1406 39.0393 18.9943 39.2795 18.8944C39.5198 18.7945 39.7774 18.7431 40.0376 18.7431C40.2978 18.7431 40.5554 18.7945 40.7957 18.8944C41.0359 18.9943 41.2541 19.1406 41.4376 19.3251L56.8126 34.7001C57.2626 35.1501 57.5376 35.7751 57.5376 36.4251V39.5751C57.5376 40.2751 58.0876 40.8251 58.7876 40.8251C59.4876 40.8251 60.0376 40.2751 60.0376 39.5751C60.0376 38.0251 60.0301 36.4551 60.0376 34.9001Z" fill="url(#paint20_linear_56_718)"/>
</g>
<path d="M60.0376 34.9001C60.0376 34.1501 59.7376 33.4501 59.2126 32.9251L41.6376 15.3501C41.2114 14.9293 40.6365 14.6934 40.0376 14.6934C39.4387 14.6934 38.8638 14.9293 38.4376 15.3501L20.8626 32.9251C20.3376 33.4501 20.0376 34.1751 20.0376 34.9001V39.4501H20.0626C20.0626 39.5001 20.0376 39.5251 20.0376 39.5751C20.0376 40.2751 20.5876 40.8251 21.2876 40.8251C21.9876 40.8251 22.5376 40.2751 22.5376 39.5751C22.5376 39.5251 22.5126 39.5001 22.5126 39.4501H22.5376V36.4251C22.5376 35.7751 22.7876 35.1501 23.2626 34.7001L38.6376 19.3251C38.8211 19.1406 39.0393 18.9943 39.2795 18.8944C39.5198 18.7945 39.7774 18.7431 40.0376 18.7431C40.2978 18.7431 40.5554 18.7945 40.7957 18.8944C41.0359 18.9943 41.2541 19.1406 41.4376 19.3251L56.8126 34.7001C57.2626 35.1501 57.5376 35.7751 57.5376 36.4251V39.5751C57.5376 40.2751 58.0876 40.8251 58.7876 40.8251C59.4876 40.8251 60.0376 40.2751 60.0376 39.5751C60.0376 38.0251 60.0301 36.4551 60.0376 34.9001Z" fill="url(#paint21_linear_56_718)"/>
<path d="M60.0376 34.9001C60.0376 34.1501 59.7376 33.4501 59.2126 32.9251L41.6376 15.3501C41.2114 14.9293 40.6365 14.6934 40.0376 14.6934C39.4387 14.6934 38.8638 14.9293 38.4376 15.3501L20.8626 32.9251C20.3376 33.4501 20.0376 34.1751 20.0376 34.9001V39.4501H20.0626C20.0626 39.5001 20.0376 39.5251 20.0376 39.5751C20.0376 40.2751 20.5876 40.8251 21.2876 40.8251C21.9876 40.8251 22.5376 40.2751 22.5376 39.5751C22.5376 39.5251 22.5126 39.5001 22.5126 39.4501H22.5376V36.4251C22.5376 35.7751 22.7876 35.1501 23.2626 34.7001L38.6376 19.3251C38.8211 19.1406 39.0393 18.9943 39.2795 18.8944C39.5198 18.7945 39.7774 18.7431 40.0376 18.7431C40.2978 18.7431 40.5554 18.7945 40.7957 18.8944C41.0359 18.9943 41.2541 19.1406 41.4376 19.3251L56.8126 34.7001C57.2626 35.1501 57.5376 35.7751 57.5376 36.4251V39.5751C57.5376 40.2751 58.0876 40.8251 58.7876 40.8251C59.4876 40.8251 60.0376 40.2751 60.0376 39.5751C60.0376 38.0251 60.0301 36.4551 60.0376 34.9001Z" fill="url(#paint22_linear_56_718)"/>
<path d="M60.0376 34.9001C60.0376 34.1501 59.7376 33.4501 59.2126 32.9251L41.6376 15.3501C41.2114 14.9293 40.6365 14.6934 40.0376 14.6934C39.4387 14.6934 38.8638 14.9293 38.4376 15.3501L20.8626 32.9251C20.3376 33.4501 20.0376 34.1751 20.0376 34.9001V39.4501H20.0626C20.0626 39.5001 20.0376 39.5251 20.0376 39.5751C20.0376 40.2751 20.5876 40.8251 21.2876 40.8251C21.9876 40.8251 22.5376 40.2751 22.5376 39.5751C22.5376 39.5251 22.5126 39.5001 22.5126 39.4501H22.5376V36.4251C22.5376 35.7751 22.7876 35.1501 23.2626 34.7001L38.6376 19.3251C38.8211 19.1406 39.0393 18.9943 39.2795 18.8944C39.5198 18.7945 39.7774 18.7431 40.0376 18.7431C40.2978 18.7431 40.5554 18.7945 40.7957 18.8944C41.0359 18.9943 41.2541 19.1406 41.4376 19.3251L56.8126 34.7001C57.2626 35.1501 57.5376 35.7751 57.5376 36.4251V39.5751C57.5376 40.2751 58.0876 40.8251 58.7876 40.8251C59.4876 40.8251 60.0376 40.2751 60.0376 39.5751C60.0376 38.0251 60.0301 36.4551 60.0376 34.9001Z" fill="url(#paint23_radial_56_718)"/>
<path d="M47.5625 74.5498H32.4375V61.2998C32.4375 60.3248 33.2125 59.5498 34.1875 59.5498H45.8125C46.7875 59.5498 47.5625 60.3248 47.5625 61.2998V74.5498Z" fill="url(#paint24_linear_56_718)"/>
<path d="M47.5625 74.5498H32.4375V61.2998C32.4375 60.3248 33.2125 59.5498 34.1875 59.5498H45.8125C46.7875 59.5498 47.5625 60.3248 47.5625 61.2998V74.5498Z" fill="url(#paint25_linear_56_718)"/>
<g filter="url(#filter12_f_56_718)">
<path d="M40.125 37.1025L44.0075 41.0125" stroke="url(#paint26_linear_56_718)" stroke-width="0.25" stroke-linecap="round"/>
</g>
<g filter="url(#filter13_f_56_718)">
<path d="M40.7651 15.8496L58.4751 33.6096" stroke="url(#paint27_linear_56_718)" stroke-width="0.4" stroke-linecap="round"/>
</g>
<defs>
<filter id="filter0_d_56_718" x="4.2876" y="26.7754" width="71" height="13.55" filterUnits="userSpaceOnUse" color-interpolation-filters="sRGB">
<feFlood flood-opacity="0" result="BackgroundImageFix"/>
<feColorMatrix in="SourceAlpha" type="matrix" values="0 0 0 0 0 0 0 0 0 0 0 0 0 0 0 0 0 0 127 0" result="hardAlpha"/>
<feOffset dx="-0.25" dy="0.25"/>
<feGaussianBlur stdDeviation="0.25"/>
<feComposite in2="hardAlpha" operator="out"/>
<feColorMatrix type="matrix" values="0 0 0 0 0.639216 0 0 0 0 0.435294 0 0 0 0 0.364706 0 0 0 1 0"/>
<feBlend mode="normal" in2="BackgroundImageFix" result="effect1_dropShadow_56_718"/>
<feBlend mode="normal" in="SourceGraphic" in2="effect1_dropShadow_56_718" result="shape"/>
</filter>
<filter id="filter1_f_56_718" x="15.5901" y="38" width="10.7576" height="7.505" filterUnits="userSpaceOnUse" color-interpolation-filters="sRGB">
<feFlood flood-opacity="0" result="BackgroundImageFix"/>
<feBlend mode="normal" in="SourceGraphic" in2="BackgroundImageFix" result="shape"/>
<feGaussianBlur stdDeviation="1" result="effect1_foregroundBlur_56_718"/>
</filter>
<filter id="filter2_d_56_718" x="59.5876" y="44.2998" width="5.6" height="8.1" filterUnits="userSpaceOnUse" color-interpolation-filters="sRGB">
<feFlood flood-opacity="0" result="BackgroundImageFix"/>
<feColorMatrix in="SourceAlpha" type="matrix" values="0 0 0 0 0 0 0 0 0 0 0 0 0 0 0 0 0 0 127 0" result="hardAlpha"/>
<feOffset dx="-0.15" dy="0.05"/>
<feGaussianBlur stdDeviation="0.15"/>
<feComposite in2="hardAlpha" operator="out"/>
<feColorMatrix type="matrix" values="0 0 0 0 0.0705882 0 0 0 0 0.466667 0 0 0 0 0.815686 0 0 0 1 0"/>
<feBlend mode="normal" in2="BackgroundImageFix" result="effect1_dropShadow_56_718"/>
<feBlend mode="normal" in="SourceGraphic" in2="effect1_dropShadow_56_718" result="shape"/>
</filter>
<filter id="filter3_d_56_718" x="67.0876" y="44.2998" width="5.6" height="8.1" filterUnits="userSpaceOnUse" color-interpolation-filters="sRGB">
<feFlood flood-opacity="0" result="BackgroundImageFix"/>
<feColorMatrix in="SourceAlpha" type="matrix" values="0 0 0 0 0 0 0 0 0 0 0 0 0 0 0 0 0 0 127 0" result="hardAlpha"/>
<feOffset dx="-0.15" dy="0.05"/>
<feGaussianBlur stdDeviation="0.15"/>
<feComposite in2="hardAlpha" operator="out"/>
<feColorMatrix type="matrix" values="0 0 0 0 0.0705882 0 0 0 0 0.466667 0 0 0 0 0.815686 0 0 0 1 0"/>
<feBlend mode="normal" in2="BackgroundImageFix" result="effect1_dropShadow_56_718"/>
<feBlend mode="normal" in="SourceGraphic" in2="effect1_dropShadow_56_718" result="shape"/>
</filter>
<filter id="filter4_d_56_718" x="59.5876" y="54.2998" width="5.6" height="8.1" filterUnits="userSpaceOnUse" color-interpolation-filters="sRGB">
<feFlood flood-opacity="0" result="BackgroundImageFix"/>
<feColorMatrix in="SourceAlpha" type="matrix" values="0 0 0 0 0 0 0 0 0 0 0 0 0 0 0 0 0 0 127 0" result="hardAlpha"/>
<feOffset dx="-0.15" dy="0.05"/>
<feGaussianBlur stdDeviation="0.15"/>
<feComposite in2="hardAlpha" operator="out"/>
<feColorMatrix type="matrix" values="0 0 0 0 0.0705882 0 0 0 0 0.466667 0 0 0 0 0.815686 0 0 0 1 0"/>
<feBlend mode="normal" in2="BackgroundImageFix" result="effect1_dropShadow_56_718"/>
<feBlend mode="normal" in="SourceGraphic" in2="effect1_dropShadow_56_718" result="shape"/>
</filter>
<filter id="filter5_d_56_718" x="67.0876" y="54.2998" width="5.6" height="8.1" filterUnits="userSpaceOnUse" color-interpolation-filters="sRGB">
<feFlood flood-opacity="0" result="BackgroundImageFix"/>
<feColorMatrix in="SourceAlpha" type="matrix" values="0 0 0 0 0 0 0 0 0 0 0 0 0 0 0 0 0 0 127 0" result="hardAlpha"/>
<feOffset dx="-0.15" dy="0.05"/>
<feGaussianBlur stdDeviation="0.15"/>
<feComposite in2="hardAlpha" operator="out"/>
<feColorMatrix type="matrix" values="0 0 0 0 0.0705882 0 0 0 0 0.466667 0 0 0 0 0.815686 0 0 0 1 0"/>
<feBlend mode="normal" in2="BackgroundImageFix" result="effect1_dropShadow_56_718"/>
<feBlend mode="normal" in="SourceGraphic" in2="effect1_dropShadow_56_718" result="shape"/>
</filter>
<filter id="filter6_d_56_718" x="7.13765" y="44.2998" width="5.6" height="8.1" filterUnits="userSpaceOnUse" color-interpolation-filters="sRGB">
<feFlood flood-opacity="0" result="BackgroundImageFix"/>
<feColorMatrix in="SourceAlpha" type="matrix" values="0 0 0 0 0 0 0 0 0 0 0 0 0 0 0 0 0 0 127 0" result="hardAlpha"/>
<feOffset dx="-0.15" dy="0.05"/>
<feGaussianBlur stdDeviation="0.15"/>
<feComposite in2="hardAlpha" operator="out"/>
<feColorMatrix type="matrix" values="0 0 0 0 0.0705882 0 0 0 0 0.466667 0 0 0 0 0.815686 0 0 0 1 0"/>
<feBlend mode="normal" in2="BackgroundImageFix" result="effect1_dropShadow_56_718"/>
<feBlend mode="normal" in="SourceGraphic" in2="effect1_dropShadow_56_718" result="shape"/>
</filter>
<filter id="filter7_d_56_718" x="14.6376" y="44.2998" width="5.6" height="8.1" filterUnits="userSpaceOnUse" color-interpolation-filters="sRGB">
<feFlood flood-opacity="0" result="BackgroundImageFix"/>
<feColorMatrix in="SourceAlpha" type="matrix" values="0 0 0 0 0 0 0 0 0 0 0 0 0 0 0 0 0 0 127 0" result="hardAlpha"/>
<feOffset dx="-0.15" dy="0.05"/>
<feGaussianBlur stdDeviation="0.15"/>
<feComposite in2="hardAlpha" operator="out"/>
<feColorMatrix type="matrix" values="0 0 0 0 0.0705882 0 0 0 0 0.466667 0 0 0 0 0.815686 0 0 0 1 0"/>
<feBlend mode="normal" in2="BackgroundImageFix" result="effect1_dropShadow_56_718"/>
<feBlend mode="normal" in="SourceGraphic" in2="effect1_dropShadow_56_718" result="shape"/>
</filter>
<filter id="filter8_d_56_718" x="7.13765" y="54.2998" width="5.6" height="8.1" filterUnits="userSpaceOnUse" color-interpolation-filters="sRGB">
<feFlood flood-opacity="0" result="BackgroundImageFix"/>
<feColorMatrix in="SourceAlpha" type="matrix" values="0 0 0 0 0 0 0 0 0 0 0 0 0 0 0 0 0 0 127 0" result="hardAlpha"/>
<feOffset dx="-0.15" dy="0.05"/>
<feGaussianBlur stdDeviation="0.15"/>
<feComposite in2="hardAlpha" operator="out"/>
<feColorMatrix type="matrix" values="0 0 0 0 0.0705882 0 0 0 0 0.466667 0 0 0 0 0.815686 0 0 0 1 0"/>
<feBlend mode="normal" in2="BackgroundImageFix" result="effect1_dropShadow_56_718"/>
<feBlend mode="normal" in="SourceGraphic" in2="effect1_dropShadow_56_718" result="shape"/>
</filter>
<filter id="filter9_d_56_718" x="14.6376" y="54.2998" width="5.6" height="8.1" filterUnits="userSpaceOnUse" color-interpolation-filters="sRGB">
<feFlood flood-opacity="0" result="BackgroundImageFix"/>
<feColorMatrix in="SourceAlpha" type="matrix" values="0 0 0 0 0 0 0 0 0 0 0 0 0 0 0 0 0 0 127 0" result="hardAlpha"/>
<feOffset dx="-0.15" dy="0.05"/>
<feGaussianBlur stdDeviation="0.15"/>
<feComposite in2="hardAlpha" operator="out"/>
<feColorMatrix type="matrix" values="0 0 0 0 0.0705882 0 0 0 0 0.466667 0 0 0 0 0.815686 0 0 0 1 0"/>
<feBlend mode="normal" in2="BackgroundImageFix" result="effect1_dropShadow_56_718"/>
<feBlend mode="normal" in="SourceGraphic" in2="effect1_dropShadow_56_718" result="shape"/>
</filter>
<filter id="filter10_dd_56_718" x="31.2376" y="28.2498" width="17.6" height="17.6" filterUnits="userSpaceOnUse" color-interpolation-filters="sRGB">
<feFlood flood-opacity="0" result="BackgroundImageFix"/>
<feColorMatrix in="SourceAlpha" type="matrix" values="0 0 0 0 0 0 0 0 0 0 0 0 0 0 0 0 0 0 127 0" result="hardAlpha"/>
<feOffset dx="0.3" dy="-0.3"/>
<feGaussianBlur stdDeviation="0.5"/>
<feComposite in2="hardAlpha" operator="out"/>
<feColorMatrix type="matrix" values="0 0 0 0 1 0 0 0 0 1 0 0 0 0 1 0 0 0 1 0"/>
<feBlend mode="normal" in2="BackgroundImageFix" result="effect1_dropShadow_56_718"/>
<feColorMatrix in="SourceAlpha" type="matrix" values="0 0 0 0 0 0 0 0 0 0 0 0 0 0 0 0 0 0 127 0" result="hardAlpha"/>
<feOffset dx="-0.3" dy="0.3"/>
<feGaussianBlur stdDeviation="0.5"/>
<feComposite in2="hardAlpha" operator="out"/>
<feColorMatrix type="matrix" values="0 0 0 0 0.694118 0 0 0 0 0.592157 0 0 0 0 0.733333 0 0 0 1 0"/>
<feBlend mode="normal" in2="effect1_dropShadow_56_718" result="effect2_dropShadow_56_718"/>
<feBlend mode="normal" in="SourceGraphic" in2="effect2_dropShadow_56_718" result="shape"/>
</filter>
<filter id="filter11_dd_56_718" x="19.5376" y="14.1434" width="41.2" height="26.9817" filterUnits="userSpaceOnUse" color-interpolation-filters="sRGB">
<feFlood flood-opacity="0" result="BackgroundImageFix"/>
<feColorMatrix in="SourceAlpha" type="matrix" values="0 0 0 0 0 0 0 0 0 0 0 0 0 0 0 0 0 0 127 0" result="hardAlpha"/>
<feOffset dx="0.4" dy="-0.25"/>
<feGaussianBlur stdDeviation="0.15"/>
<feComposite in2="hardAlpha" operator="out"/>
<feColorMatrix type="matrix" values="0 0 0 0 0.384314 0 0 0 0 0.258824 0 0 0 0 0.231373 0 0 0 1 0"/>
<feBlend mode="normal" in2="BackgroundImageFix" result="effect1_dropShadow_56_718"/>
<feColorMatrix in="SourceAlpha" type="matrix" values="0 0 0 0 0 0 0 0 0 0 0 0 0 0 0 0 0 0 127 0" result="hardAlpha"/>
<feOffset dx="-0.2"/>
<feGaussianBlur stdDeviation="0.15"/>
<feComposite in2="hardAlpha" operator="out"/>
<feColorMatrix type="matrix" values="0 0 0 0 0.670588 0 0 0 0 0.466667 0 0 0 0 0.415686 0 0 0 1 0"/>
<feBlend mode="normal" in2="effect1_dropShadow_56_718" result="effect2_dropShadow_56_718"/>
<feBlend mode="normal" in="SourceGraphic" in2="effect2_dropShadow_56_718" result="shape"/>
</filter>
<filter id="filter12_f_56_718" x="39.5" y="36.4775" width="5.13257" height="5.16003" filterUnits="userSpaceOnUse" color-interpolation-filters="sRGB">
<feFlood flood-opacity="0" result="BackgroundImageFix"/>
<feBlend mode="normal" in="SourceGraphic" in2="BackgroundImageFix" result="shape"/>
<feGaussianBlur stdDeviation="0.25" result="effect1_foregroundBlur_56_718"/>
</filter>
<filter id="filter13_f_56_718" x="40.1652" y="15.2497" width="18.9099" height="18.9599" filterUnits="userSpaceOnUse" color-interpolation-filters="sRGB">
<feFlood flood-opacity="0" result="BackgroundImageFix"/>
<feBlend mode="normal" in="SourceGraphic" in2="BackgroundImageFix" result="shape"/>
<feGaussianBlur stdDeviation="0.2" result="effect1_foregroundBlur_56_718"/>
</filter>
<linearGradient id="paint0_linear_56_718" x1="40.0376" y1="27.9854" x2="40.0376" y2="39.5729" gradientUnits="userSpaceOnUse">
<stop stop-color="#EB3800"/>
<stop offset="1" stop-color="#6E504C"/>
</linearGradient>
<linearGradient id="paint1_linear_56_718" x1="7.1476" y1="35.7979" x2="8.5901" y2="36.2254" gradientUnits="userSpaceOnUse">
<stop stop-color="#EB3800"/>
<stop offset="1" stop-color="#511500" stop-opacity="0"/>
</linearGradient>
<linearGradient id="paint2_linear_56_718" x1="13.8326" y1="39.5473" x2="13.8326" y2="71.6998" gradientUnits="userSpaceOnUse">
<stop stop-color="#C9885B"/>
<stop offset="1" stop-color="#E79F6A"/>
</linearGradient>
<linearGradient id="paint3_linear_56_718" x1="24.0526" y1="58.9973" x2="16.4176" y2="58.9973" gradientUnits="userSpaceOnUse">
<stop stop-color="#935B42"/>
<stop offset="1" stop-color="#B67358" stop-opacity="0"/>
</linearGradient>
<linearGradient id="paint4_linear_56_718" x1="5.0376" y1="68.2198" x2="6.9126" y2="68.2198" gradientUnits="userSpaceOnUse">
<stop stop-color="#A1714D"/>
<stop offset="1" stop-color="#A1714D" stop-opacity="0"/>
</linearGradient>
<linearGradient id="paint5_linear_56_718" x1="13.8326" y1="36.6423" x2="13.8326" y2="41.3923" gradientUnits="userSpaceOnUse">
<stop stop-color="#EB3800"/>
<stop offset="1" stop-color="#EB3800" stop-opacity="0.17"/>
</linearGradient>
<linearGradient id="paint6_linear_56_718" x1="57.5376" y1="67.1848" x2="75.0376" y2="67.1848" gradientUnits="userSpaceOnUse">
<stop stop-color="#FFD19E"/>
<stop offset="1" stop-color="#F2BEA5"/>
</linearGradient>
<linearGradient id="paint7_linear_56_718" x1="75.0376" y1="62.5823" x2="73.4376" y2="62.5823" gradientUnits="userSpaceOnUse">
<stop stop-color="#EEC9A8"/>
<stop offset="1" stop-color="#EEC9A8" stop-opacity="0"/>
</linearGradient>
<linearGradient id="paint8_linear_56_718" x1="63.8626" y1="39.1598" x2="63.8626" y2="40.5198" gradientUnits="userSpaceOnUse">
<stop stop-color="#A97469"/>
<stop offset="1" stop-color="#A97469" stop-opacity="0"/>
</linearGradient>
<radialGradient id="paint9_radial_56_718" cx="0" cy="0" r="1" gradientUnits="userSpaceOnUse" gradientTransform="translate(57.2651 39.5498) rotate(90) scale(2.92965 2.34375)">
<stop offset="0.307" stop-color="#EB3800"/>
<stop offset="1" stop-color="#EB3800" stop-opacity="0.14"/>
</radialGradient>
<linearGradient id="paint10_linear_56_718" x1="28.0075" y1="53.7672" x2="55.82" y2="59.7047" gradientUnits="userSpaceOnUse">
<stop stop-color="#F2B98E"/>
<stop offset="1" stop-color="#FFD7AB"/>
</linearGradient>
<linearGradient id="paint11_linear_56_718" x1="21.7575" y1="61.9497" x2="24.49" y2="61.9497" gradientUnits="userSpaceOnUse">
<stop offset="0.214" stop-color="#A3785B"/>
<stop offset="0.657" stop-color="#B27E5B"/>
<stop offset="0.914" stop-color="#DEA072" stop-opacity="0"/>
</linearGradient>
<linearGradient id="paint12_linear_56_718" x1="57.5625" y1="60.5122" x2="56.1625" y2="60.5122" gradientUnits="userSpaceOnUse">
<stop offset="0.403" stop-color="#FFE4B3"/>
<stop offset="1" stop-color="#FFE4B3" stop-opacity="0"/>
</linearGradient>
<linearGradient id="paint13_linear_56_718" x1="50.1325" y1="27.1822" x2="48.1025" y2="29.2147" gradientUnits="userSpaceOnUse">
<stop offset="0.19" stop-color="#8A594A"/>
<stop offset="1" stop-color="#986658" stop-opacity="0"/>
</linearGradient>
<linearGradient id="paint14_linear_56_718" x1="30.8575" y1="26.1497" x2="32.07" y2="27.3597" gradientUnits="userSpaceOnUse">
<stop stop-color="#794D30"/>
<stop offset="1" stop-color="#794D30" stop-opacity="0"/>
</linearGradient>
<radialGradient id="paint15_radial_56_718" cx="0" cy="0" r="1" gradientUnits="userSpaceOnUse" gradientTransform="translate(57.5625 35.9147) rotate(90) scale(6.9922 1.90002)">
<stop offset="0.274" stop-color="#1D0C0B"/>
<stop offset="1" stop-color="#AC7C6C" stop-opacity="0"/>
</radialGradient>
<radialGradient id="paint16_radial_56_718" cx="0" cy="0" r="1" gradientUnits="userSpaceOnUse" gradientTransform="translate(22.1075 35.7572) rotate(90) scale(6.09375 2.07033)">
<stop offset="0.244" stop-color="#EB3800"/>
<stop offset="1" stop-color="#EB3800" stop-opacity="0"/>
</radialGradient>
<radialGradient id="paint17_radial_56_718" cx="0" cy="0" r="1" gradientUnits="userSpaceOnUse" gradientTransform="translate(40.5551 33.4248) rotate(90) scale(4.64807 2.1319)">
<stop stop-color="#B1786C"/>
<stop offset="1" stop-color="#735351"/>
</radialGradient>
<radialGradient id="paint18_radial_56_718" cx="0" cy="0" r="1" gradientUnits="userSpaceOnUse" gradientTransform="translate(40.5876 32.9248) scale(1.19192 0.639575)">
<stop stop-color="#BE8370"/>
<stop offset="1" stop-color="#BE8370" stop-opacity="0"/>
</radialGradient>
<linearGradient id="paint19_linear_56_718" x1="38.7876" y1="35.8226" x2="44.5926" y2="41.6276" gradientUnits="userSpaceOnUse">
<stop stop-color="#6C4B40"/>
<stop offset="1" stop-color="#B16F60"/>
</linearGradient>
<linearGradient id="paint20_linear_56_718" x1="40.0376" y1="14.6926" x2="40.0376" y2="40.8226" gradientUnits="userSpaceOnUse">
<stop stop-color="#B67A6C"/>
<stop offset="1" stop-color="#825E59"/>
</linearGradient>
<linearGradient id="paint21_linear_56_718" x1="50.2651" y1="23.7601" x2="49.5626" y2="24.4626" gradientUnits="userSpaceOnUse">
<stop stop-color="#BF8B78"/>
<stop offset="1" stop-color="#BF8B78" stop-opacity="0"/>
</linearGradient>
<linearGradient id="paint22_linear_56_718" x1="40.0376" y1="42.0476" x2="40.0376" y2="39.1451" gradientUnits="userSpaceOnUse">
<stop stop-color="#543C46"/>
<stop offset="1" stop-color="#543C46" stop-opacity="0"/>
</linearGradient>
<radialGradient id="paint23_radial_56_718" cx="0" cy="0" r="1" gradientUnits="userSpaceOnUse" gradientTransform="translate(40.0376 22.0926) rotate(-90) scale(4.91042 3.27542)">
<stop offset="0.527" stop-color="#EB3800"/>
<stop offset="1" stop-color="#7E4541" stop-opacity="0"/>
</radialGradient>
<linearGradient id="paint24_linear_56_718" x1="32.4375" y1="68.2598" x2="47.5625" y2="68.2598" gradientUnits="userSpaceOnUse">
<stop stop-color="white"/>
<stop offset="1" stop-color="#FBFBFB"/>
</linearGradient>
<linearGradient id="paint25_linear_56_718" x1="32.4375" y1="68.3198" x2="34.04" y2="68.3198" gradientUnits="userSpaceOnUse">
<stop offset="0.347" stop-color="#FEFEFE"/>
<stop offset="1" stop-color="#695282" stop-opacity="0"/>
</linearGradient>
<linearGradient id="paint26_linear_56_718" x1="44.2975" y1="40.8975" x2="39.77" y2="36.63" gradientUnits="userSpaceOnUse">
<stop stop-color="#C38878"/>
<stop offset="1" stop-color="#A57A6D"/>
</linearGradient>
<linearGradient id="paint27_linear_56_718" x1="59.2951" y1="35.1046" x2="40.7601" y2="15.4246" gradientUnits="userSpaceOnUse">
<stop stop-color="#D4967E" stop-opacity="0"/>
<stop offset="1" stop-color="#D4967E"/>
</linearGradient>
</defs>
</svg>
