<svg width="19" height="19" viewBox="0 0 19 19" fill="none" xmlns="http://www.w3.org/2000/svg">
<path d="M17.533 3.29417C17.3015 2.69635 16.9477 2.15345 16.4943 1.70023C16.041 1.247 15.4979 0.893439 14.9 0.662168C14.2003 0.399525 13.4612 0.257509 12.714 0.242167C11.751 0.200167 11.446 0.188168 9.00401 0.188168C6.56201 0.188168 6.24901 0.188167 5.29401 0.242167C4.5474 0.256724 3.80877 0.398769 3.11001 0.662168C2.51195 0.893169 1.96878 1.24664 1.51535 1.6999C1.06192 2.15315 0.708243 2.69619 0.477014 3.29417C0.214319 3.99378 0.0726287 4.733 0.0580142 5.48017C0.0150142 6.44217 0.00201416 6.74717 0.00201416 9.19017C0.00201416 11.6322 0.00201415 11.9432 0.0580142 12.9002C0.0730142 13.6482 0.214014 14.3862 0.477014 15.0872C0.708892 15.6849 1.06291 16.2277 1.51645 16.6809C1.96999 17.1341 2.51308 17.4877 3.11101 17.7192C3.80845 17.9924 4.54739 18.1446 5.29601 18.1692C6.25901 18.2112 6.56401 18.2242 9.00601 18.2242C11.448 18.2242 11.761 18.2242 12.716 18.1692C13.4631 18.154 14.2022 18.0123 14.902 17.7502C15.4998 17.5184 16.0426 17.1645 16.496 16.7111C16.9493 16.2578 17.3032 15.7149 17.535 15.1172C17.798 14.4172 17.939 13.6792 17.954 12.9312C17.997 11.9692 18.01 11.6642 18.01 9.22117C18.01 6.77817 18.01 6.46817 17.954 5.51117C17.9424 4.75344 17.7999 4.00342 17.533 3.29417ZM16.315 12.8262C16.3086 13.4025 16.2034 13.9734 16.004 14.5142C15.8538 14.903 15.6239 15.2562 15.3291 15.5508C15.0342 15.8455 14.681 16.0752 14.292 16.2252C13.7572 16.4236 13.1924 16.5288 12.622 16.5362C11.672 16.5802 11.404 16.5912 8.96801 16.5912C6.53001 16.5912 6.28101 16.5912 5.31301 16.5362C4.74294 16.5292 4.17834 16.424 3.64401 16.2252C3.2537 16.0762 2.89902 15.8469 2.6029 15.5521C2.30679 15.2574 2.07585 14.9038 1.92501 14.5142C1.72846 13.9792 1.62333 13.415 1.61401 12.8452C1.57101 11.8952 1.56101 11.6272 1.56101 9.19117C1.56101 6.75417 1.56101 6.50517 1.61401 5.53617C1.62048 4.96019 1.72567 4.38959 1.92501 3.84917C2.23001 3.06017 2.85501 2.43917 3.64401 2.13717C4.1786 1.93931 4.74304 1.83413 5.31301 1.82617C6.26401 1.78317 6.53101 1.77117 8.96801 1.77117C11.405 1.77117 11.655 1.77117 12.622 1.82617C13.1924 1.83303 13.7574 1.93824 14.292 2.13717C14.6809 2.28744 15.0342 2.51737 15.329 2.8122C15.6238 3.10703 15.8537 3.46024 16.004 3.84917C16.2006 4.38412 16.3057 4.94833 16.315 5.51817C16.358 6.46917 16.369 6.73617 16.369 9.17317C16.369 11.6092 16.369 11.8712 16.326 12.8272H16.315V12.8262Z" fill="white"/>
</svg>
