<svg width="182" height="26" viewBox="0 0 182 26" fill="none" xmlns="http://www.w3.org/2000/svg">
<path d="M25.8357 2.69287H14.8376V22.4972H25.8357V2.69287Z" fill="#BDBDBD"/>
<path d="M15.536 12.595C15.5342 10.6877 15.9656 8.80499 16.7973 7.08942C17.629 5.37384 18.8394 3.87037 20.3367 2.69281C18.4825 1.23237 16.2556 0.324139 13.9106 0.0719335C11.5656 -0.180272 9.19712 0.233715 7.07584 1.26659C4.95456 2.29947 3.16607 3.90957 1.91481 5.91283C0.663554 7.91609 0 10.2317 0 12.595C0 14.9583 0.663554 17.2739 1.91481 19.2772C3.16607 21.2804 4.95456 22.8905 7.07584 23.9234C9.19712 24.9563 11.5656 25.3703 13.9106 25.1181C16.2556 24.8658 18.4825 23.9576 20.3367 22.4972C18.8394 21.3196 17.629 19.8161 16.7973 18.1006C15.9656 16.385 15.5342 14.5023 15.536 12.595Z" fill="#BDBDBD"/>
<path d="M40.6727 12.595C40.6728 14.9583 40.0093 17.2739 38.7581 19.2771C37.507 21.2804 35.7185 22.8905 33.5973 23.9234C31.476 24.9563 29.1076 25.3703 26.7626 25.1181C24.4177 24.8659 22.1908 23.9576 20.3367 22.4972C21.8327 21.3184 23.0421 19.8147 23.8737 18.0994C24.7053 16.3841 25.1373 14.502 25.1373 12.595C25.1373 10.688 24.7053 8.80589 23.8737 7.09059C23.0421 5.37528 21.8327 3.87157 20.3367 2.69282C22.1908 1.23237 24.4177 0.324133 26.7626 0.0719304C29.1076 -0.180272 31.476 0.233733 33.5973 1.26662C35.7185 2.29951 37.507 3.90962 38.7581 5.91288C40.0093 7.91615 40.6728 10.2317 40.6727 12.595Z" fill="#BDBDBD"/>
<path d="M39.4736 20.3996V19.9942H39.6367V19.9116H39.2212V19.9942H39.3844V20.3996H39.4736ZM40.2803 20.3996V19.9108H40.1529L40.0064 20.247L39.8598 19.9108H39.7324V20.3996H39.8224V20.0309L39.9597 20.3488H40.053L40.1904 20.0301V20.3996H40.2803Z" fill="#BDBDBD"/>
<path d="M73.3016 20.209V13.2176C73.3016 10.5841 71.6271 8.81303 68.9293 8.78968C68.1608 8.73953 67.3929 8.89687 66.7057 9.24529C66.0185 9.59371 65.4371 10.1205 65.0222 10.7706C64.644 10.1398 64.1031 9.62289 63.4565 9.27427C62.8098 8.92565 62.0812 8.75824 61.3475 8.78968C60.708 8.75748 60.0712 8.89321 59.5002 9.18344C58.9291 9.47366 58.4436 9.90832 58.0917 10.4444V9.06936H55.6729V20.209H58.1148V14.0331C58.1148 12.0989 59.1847 11.0737 60.8359 11.0737C62.4406 11.0737 63.2547 12.1223 63.2547 14.01V20.209H65.6967V14.0331C65.6967 12.0989 66.813 11.0737 68.4177 11.0737C70.0689 11.0737 70.8596 12.1223 70.8596 14.01V20.209H73.3016ZM109.443 9.06936H105.489V5.69029H103.047V9.06936H100.791V11.2833H103.047V16.3637C103.047 18.9506 104.047 20.4887 106.908 20.4887C107.976 20.4919 109.024 20.193 109.931 19.6264L109.234 17.5522C108.585 17.9399 107.849 18.1565 107.094 18.1815C105.885 18.1815 105.489 17.4356 105.489 16.3172V11.2833H109.443V9.06936ZM130.072 8.78968C129.482 8.77227 128.899 8.91463 128.383 9.20174C127.867 9.48885 127.438 9.91007 127.141 10.421V9.06936H124.746V20.209H127.165V13.9633C127.165 12.1223 127.955 11.0968 129.537 11.0968C130.054 11.0897 130.568 11.1848 131.049 11.3766L131.793 9.09272C131.24 8.89455 130.658 8.79207 130.072 8.78968ZM98.8842 9.95503C97.5152 9.13922 95.941 8.73473 94.3491 8.78968C91.5349 8.78968 89.721 10.1413 89.721 12.3552C89.721 14.1731 91.0699 15.2917 93.5582 15.6413L94.698 15.8044C96.0235 15.9907 96.6515 16.3403 96.6515 16.9696C96.6515 17.8319 95.7676 18.3213 94.1165 18.3213C92.7883 18.3595 91.4859 17.9491 90.4185 17.1561L89.2791 19.0436C90.6879 20.0297 92.3755 20.5363 94.0933 20.4887C97.3026 20.4887 99.1632 18.9737 99.1632 16.853C99.1632 14.8954 97.6981 13.87 95.2793 13.5204L94.1398 13.3573C93.0932 13.2175 92.256 13.0079 92.256 12.2622C92.256 11.4465 93.0466 10.9571 94.3724 10.9571C95.5897 10.9754 96.7823 11.3043 97.8376 11.9126L98.8842 9.95503ZM163.678 8.78968C163.088 8.77225 162.505 8.9146 161.989 9.20171C161.473 9.48882 161.044 9.91006 160.748 10.421V9.06936H158.352V20.209H160.771V13.9633C160.771 12.1223 161.562 11.0968 163.143 11.0968C163.66 11.0897 164.174 11.1847 164.655 11.3766L165.399 9.09272C164.847 8.89455 164.265 8.79207 163.678 8.78968ZM132.514 14.6391C132.514 18.0184 134.863 20.4887 138.444 20.4887C139.896 20.5618 141.323 20.0879 142.444 19.1602L141.282 17.2026C140.445 17.8413 139.426 18.1928 138.374 18.2046C136.444 18.1815 135.026 16.7832 135.026 14.6391C135.026 12.4952 136.444 11.0968 138.374 11.0737C139.426 11.0856 140.445 11.437 141.282 12.0757L142.444 10.1182C141.323 9.19049 139.896 8.71661 138.444 8.78968C134.863 8.78968 132.514 11.26 132.514 14.6391ZM155.166 14.6391V9.06936H152.747V10.421C152.334 9.88789 151.8 9.4616 151.189 9.17779C150.578 8.89397 149.908 8.76089 149.235 8.78968C146.119 8.78968 143.677 11.2368 143.677 14.6391C143.677 18.0416 146.119 20.4887 149.235 20.4887C149.908 20.5175 150.578 20.3844 151.189 20.1006C151.8 19.8168 152.334 19.3905 152.747 18.8573V20.209H155.166V14.6391ZM146.165 14.6391C146.165 12.6815 147.445 11.0737 149.538 11.0737C151.538 11.0737 152.887 12.6116 152.887 14.6391C152.887 16.6666 151.538 18.2046 149.538 18.2046C147.445 18.2046 146.165 16.5967 146.165 14.6391ZM116.978 8.78968C113.722 8.78968 111.443 11.1667 111.443 14.6391C111.443 18.1815 113.815 20.4887 117.141 20.4887C118.8 20.547 120.423 19.9912 121.699 18.9272L120.513 17.1327C119.595 17.8703 118.457 18.2803 117.28 18.2979C115.722 18.2979 114.304 17.5756 113.955 15.5712H122.211C122.234 15.2684 122.257 14.9655 122.257 14.6391C122.234 11.1667 120.095 8.78968 116.978 8.78968ZM116.932 10.9571C118.49 10.9571 119.49 11.9358 119.746 13.6604H113.978C114.234 12.0524 115.21 10.9571 116.932 10.9571ZM177.609 14.6391V4.59497H175.19V10.421C174.777 9.88791 174.243 9.46163 173.632 9.17781C173.021 8.894 172.351 8.76091 171.679 8.78968C168.562 8.78968 166.12 11.2368 166.12 14.6391C166.12 18.0416 168.562 20.4887 171.679 20.4887C172.351 20.5175 173.021 20.3844 173.632 20.1006C174.243 19.8167 174.777 19.3904 175.19 18.8573V20.209H177.609V14.6391ZM180.436 19.181C180.532 19.1804 180.627 19.1992 180.715 19.2365C180.8 19.272 180.877 19.3235 180.943 19.388C181.009 19.4525 181.061 19.529 181.097 19.6134C181.134 19.7 181.153 19.7933 181.153 19.8876C181.153 19.9818 181.134 20.0751 181.097 20.1618C181.061 20.2457 181.008 20.3219 180.943 20.3861C180.877 20.4507 180.8 20.5024 180.715 20.5385C180.627 20.5764 180.532 20.5956 180.436 20.5949C180.294 20.5964 180.156 20.5561 180.037 20.479C179.919 20.402 179.825 20.2916 179.769 20.1618C179.732 20.0751 179.713 19.9818 179.713 19.8876C179.713 19.7933 179.732 19.7 179.769 19.6134C179.842 19.4422 179.979 19.3068 180.151 19.2365C180.241 19.1991 180.338 19.1803 180.436 19.181ZM180.436 20.439C180.509 20.4395 180.581 20.4248 180.648 20.3957C180.713 20.3676 180.772 20.3276 180.821 20.2778C180.924 20.174 180.981 20.0339 180.981 19.8879C180.981 19.7419 180.924 19.6018 180.821 19.498C180.772 19.4483 180.713 19.4087 180.648 19.3812C180.581 19.3525 180.509 19.338 180.436 19.3387C180.361 19.3381 180.287 19.3525 180.219 19.3812C180.136 19.4165 180.063 19.4715 180.006 19.5416C179.95 19.6116 179.911 19.6944 179.894 19.7829C179.876 19.8713 179.881 19.9627 179.907 20.049C179.933 20.1352 179.98 20.2138 180.043 20.2778C180.094 20.328 180.153 20.368 180.219 20.3957C180.287 20.4247 180.361 20.4395 180.436 20.439ZM180.477 19.557C180.547 19.5525 180.615 19.5724 180.672 19.6134C180.694 19.6319 180.712 19.6553 180.724 19.6819C180.736 19.7085 180.741 19.7375 180.74 19.7666C180.741 19.7916 180.736 19.8164 180.727 19.8395C180.718 19.8627 180.704 19.8836 180.686 19.9009C180.643 19.9391 180.588 19.9619 180.531 19.9659L180.745 20.2136H180.578L180.379 19.9676H180.315V20.2136H180.175V19.557H180.477ZM180.315 19.6801V19.8551H180.476C180.506 19.8566 180.537 19.8491 180.564 19.8333C180.575 19.8261 180.583 19.8161 180.589 19.8044C180.595 19.7927 180.597 19.7797 180.597 19.7666C180.597 19.7539 180.595 19.7412 180.589 19.7297C180.583 19.7183 180.574 19.7086 180.564 19.7016C180.537 19.686 180.506 19.6785 180.476 19.6801H180.315ZM168.609 14.6391C168.609 12.6815 169.888 11.0737 171.981 11.0737C173.981 11.0737 175.33 12.6116 175.33 14.6391C175.33 16.6666 173.981 18.2046 171.981 18.2046C169.888 18.2046 168.609 16.5967 168.609 14.6391ZM86.9302 14.6391V9.06936H84.5114V10.421C84.0985 9.88789 83.5643 9.46159 82.9533 9.17777C82.3423 8.89396 81.6724 8.76089 80.9996 8.78968C77.8832 8.78968 75.4413 11.2368 75.4413 14.6391C75.4413 18.0416 77.8832 20.4887 80.9996 20.4887C81.6724 20.5175 82.3423 20.3844 82.9533 20.1006C83.5643 19.8168 84.0985 19.3905 84.5114 18.8573V20.209H86.9302V14.6391ZM77.9298 14.6391C77.9298 12.6815 79.209 11.0737 81.302 11.0737C83.3021 11.0737 84.6509 12.6116 84.6509 14.6391C84.6509 16.6666 83.3021 18.2046 81.302 18.2046C79.209 18.2046 77.9298 16.5967 77.9298 14.6391Z" fill="#828282"/>
</svg>
