<svg width="4" height="10" viewBox="0 0 4 10" fill="none" xmlns="http://www.w3.org/2000/svg">
<path d="M2.00078 2.6C1.33804 2.6 0.800781 2.06274 0.800781 1.4C0.800781 0.737255 1.33804 0.199997 2.00078 0.199997C2.66352 0.199997 3.20078 0.737255 3.20078 1.4C3.20078 2.06274 2.66352 2.6 2.00078 2.6Z" fill="#BDBDBD"/>
<path d="M2.00078 6.2C1.33804 6.2 0.800781 5.66274 0.800781 5C0.800781 4.33726 1.33804 3.8 2.00078 3.8C2.66352 3.8 3.20078 4.33726 3.20078 5C3.20078 5.66274 2.66352 6.2 2.00078 6.2Z" fill="#BDBDBD"/>
<path d="M2.00078 9.8C1.33804 9.8 0.800781 9.26274 0.800781 8.6C0.800781 7.93726 1.33804 7.4 2.00078 7.4C2.66352 7.4 3.20078 7.93726 3.20078 8.6C3.20078 9.26274 2.66352 9.8 2.00078 9.8Z" fill="#BDBDBD"/>
</svg>
