<svg width="70" height="70" viewBox="0 0 70 70" fill="none" xmlns="http://www.w3.org/2000/svg">
<path d="M20.2782 44.182C20.2782 44.182 5.25556 40.9718 4.99853 41.0211C4.7415 41.0703 1.73368 44.0781 1.83759 44.5429C1.9415 45.0133 15.0993 51.9531 15.0993 51.9531L18.8782 47.9664L20.2782 44.182ZM18.2056 54.8023C18.2056 54.8023 25.5063 67.4406 25.8181 67.4406C26.1298 67.4406 29.4931 64.8484 29.4931 64.5914C29.4931 64.3343 26.3868 49.2625 26.3868 49.2625L21.0493 49.8859L18.2056 54.8023Z" fill="#EB3800"/>
<path d="M12.4634 14.0984C12.4634 14.0984 11.4134 15.2851 11.1891 15.7062C10.9649 16.1273 10.9266 16.8492 11.4079 17.1062C11.8891 17.3632 12.4743 17.1882 12.7641 16.8656C13.054 16.5429 14.4813 14.7874 14.4813 14.7874C14.4813 14.7874 12.5891 13.9999 12.4634 14.0984ZM20.1305 18.3914C20.1305 18.3914 19.2829 19.3976 18.9384 19.857C18.6048 20.2999 18.6102 20.9945 19.0751 21.3226C19.7423 21.7929 20.404 21.2679 20.7649 20.8796C21.0985 20.5187 22.0391 19.414 22.0391 19.414L20.1305 18.3914ZM27.3876 22.296C27.3876 22.296 26.2774 23.4062 25.9493 23.8492C25.5829 24.3359 25.5009 25.0468 26.004 25.4296C26.5563 25.8453 27.1688 25.6539 27.6665 25.2054C28.1641 24.7624 29.2743 23.5429 29.2743 23.5429L27.3876 22.296ZM46.5446 41.0429C46.5446 41.0429 45.243 41.9453 44.9204 42.2953C44.6032 42.6453 44.3899 43.3453 44.8001 43.7117C45.2048 44.0781 45.8173 44.0453 46.1782 43.8046C46.5391 43.564 48.3438 42.2023 48.3438 42.2023C48.3438 42.2023 46.6923 40.9828 46.5446 41.0429ZM50.9305 47.9117C50.9305 47.9117 49.8532 48.6664 49.4048 49.0218C48.9673 49.3664 48.7977 50.039 49.1641 50.4765C49.6837 51.0999 50.4657 50.7664 50.9087 50.482C51.3243 50.2195 52.5165 49.3882 52.5165 49.3882L50.9305 47.9117ZM54.9446 54.9335C54.9446 54.9335 53.6048 55.7429 53.1727 56.0929C52.7024 56.4812 52.4509 57.1484 52.8501 57.6406C53.2876 58.1765 53.9274 58.1328 54.518 57.8265C55.1087 57.5203 56.4759 56.6015 56.4759 56.6015L54.9446 54.9335ZM31.3196 12.9773C31.3196 12.9773 31.1282 11.7031 32.1618 10.2648C33.1954 8.82651 36.6243 5.4687 37.1548 5.44135C37.6852 5.41401 38.954 6.08667 40.2282 7.33901C41.4423 8.52573 42.0055 10.0515 42.0274 10.4124C42.0493 10.7734 39.654 13.1468 39.0305 13.721C38.4071 14.2953 36.7282 16.1656 36.7282 16.1656L31.3196 12.9773Z" fill="#9A9A9A"/>
<path d="M32.8835 13.1688C32.8835 13.1688 37.0835 8.03363 38.2101 8.80473C39.3476 9.58129 34.8031 13.9891 34.8031 13.9891L32.8835 13.1688Z" fill="#C8C8C8"/>
<path d="M31.9211 12.8406C31.9211 12.8406 34.3 10.4289 34.5625 10.0461C34.825 9.66328 34.5844 9.08906 34.3711 8.77188C34.1578 8.46016 33.8297 8.33984 33.8297 8.33984C33.8297 8.33984 32.1508 9.84375 31.5765 11.1617C31.1281 12.1844 31.2047 12.7039 31.2047 12.7039L31.9211 12.8406ZM36.0172 14.082C36.0172 14.082 36.9195 13.1469 37.3734 12.775C37.7836 12.4414 38.3906 12.4742 38.7515 12.6875C39.2164 12.9609 39.3258 13.4312 39.3258 13.4312L37.6523 15.2086L36.0172 14.082Z" fill="#848484"/>
<path d="M55.7593 32.512C55.7593 32.512 57.1319 30.9152 57.9304 30.1167C58.7562 29.2909 60.1015 28.1698 60.3749 28.1917C60.6483 28.2191 61.8569 28.9519 62.9944 30.1167C64.2905 31.4402 65.0944 33.0863 65.1163 33.2394C65.1437 33.387 62.721 35.8097 61.6437 36.7339C60.8726 37.3956 56.0765 39.3534 56.0765 39.1073C56.0874 38.8558 55.7593 32.512 55.7593 32.512Z" fill="#9A9A9A"/>
<path d="M56.5522 35.6018C56.5522 35.6018 60.5226 31.2487 61.4304 32.0635C62.3382 32.8784 56.8858 37.7784 56.8858 37.7784L56.5522 35.6018Z" fill="#C8C8C8"/>
<path d="M56.257 34.5079L57.7062 32.911C58.2203 32.3477 58.1875 31.593 58.0343 31.2649C57.8375 30.8438 57.3289 30.7454 57.3289 30.7454L55.4421 32.7524L56.257 34.5079ZM57.6296 38.1227C57.6296 38.1227 59.9046 36.0719 60.2929 35.7493C60.6812 35.4266 61.3101 35.1969 61.8078 35.5415C62.1796 35.7985 62.3437 36.1102 62.3437 36.1102C62.3437 36.1102 60.5937 38.0133 59.5382 38.686C58.8765 39.1071 57.3125 39.3477 57.3125 39.3477L57.6296 38.1227Z" fill="#848484"/>
<path d="M6.3712 4.87818C5.83527 4.92193 2.43917 8.93599 2.31886 9.2313C2.19855 9.52662 2.31886 10.0079 3.15558 10.4235C3.98683 10.8391 27.4751 23.2422 27.836 23.5376C28.1915 23.8383 32.8454 29.0227 32.8454 29.0227C32.8454 29.0227 44.3517 21.093 44.2915 20.8579C44.2314 20.6172 43.8759 15.6735 43.8759 15.6735C43.8759 15.6735 7.14777 4.81802 6.3712 4.87818ZM39.9384 36.0008C39.9384 36.0008 46.9712 42.3774 47.5673 43.154C48.1634 43.9305 60.3259 66.1063 60.5064 66.4618C60.6868 66.8172 61.4579 67.118 61.879 66.7024C62.3001 66.2868 65.4556 63.5415 65.5157 62.8852C65.5759 62.229 53.829 24.3743 53.829 24.3743L44.7673 27.6555L39.9384 36.0008Z" fill="#EB3800"/>
<path d="M36.5368 23.6574C36.5368 23.6574 30.9915 18.2926 30.5758 17.9918C30.1602 17.6965 4.16724 6.9668 4.16724 6.9668L3.10083 8.14258C3.10083 8.14258 29.4493 19.2715 29.8704 19.5668C30.2915 19.8621 35.4485 25.1449 35.4485 25.1449L36.5368 23.6574ZM45.0626 33.0582C45.0626 33.0582 51.1711 40.5613 51.5376 41.048C51.904 41.5348 62.6172 66.0129 62.6172 66.0129L63.6836 65.0176C63.6836 65.0176 52.9813 40.0418 52.7899 39.7027C52.5985 39.3637 45.4836 30.5699 45.4836 30.5699L45.0626 33.0582Z" fill="#A82800"/>
<path d="M13.2454 53.8125C13.2454 53.8125 10.9595 57.0828 10.9595 57.3398C10.9595 57.6023 12.4907 59.2758 12.6657 59.2758C12.8407 59.2758 16.1657 56.9023 16.1657 56.9023L15.7009 54.5289L13.2454 53.8125Z" fill="#9A9A9A"/>
<path d="M13.2454 53.8125C13.2454 53.8125 17.7735 46.1945 22.6243 39.3859C27.6063 32.3914 31.6477 28.3609 37.8602 21.6015C45.6532 13.125 50.843 8.32342 55.6446 5.09139C59.6258 2.4117 65.3133 0.596077 67.3422 2.40623C69.568 4.39686 67.1125 10.675 64.6133 14.2515C58.9422 22.3672 54.075 26.2281 48.4915 31.6476C42.9844 36.9906 38.3305 41.6281 32.5665 45.9539C28.6836 48.8687 16.1602 56.9133 16.1602 56.9133L13.2454 53.8125Z" fill="#C8C8C8"/>
<path d="M56.8313 6.04299L58.3461 7.63987C58.3461 7.63987 60.8836 5.19534 62.7813 7.01643C64.7282 8.88127 62.043 11.5281 62.043 11.5281L63.6782 13.3547C63.6782 13.3547 68.1133 8.3344 64.493 5.06956C61.343 2.22581 56.8313 6.04299 56.8313 6.04299Z" fill="#3B5361"/>
<path d="M26.1624 40.4685C25.4569 41.1466 17.1226 51.0122 16.6577 51.5974C16.0616 52.3521 15.7882 53.2599 16.4609 53.8177C17.1335 54.3701 17.8608 53.8232 18.5226 53.3802C19.3538 52.8279 29.0116 44.3076 29.6515 43.7169C30.6796 42.7654 30.8546 41.0482 29.7718 40.0747C28.5796 39.0029 27.2343 39.4404 26.1624 40.4685Z" fill="#9A9A9A"/>
<path d="M25.8618 38.2318C25.386 37.8216 24.7954 38.095 24.172 38.7677C23.636 39.3529 23.3899 40.2607 23.9259 40.6271C24.4618 40.9935 25.1727 40.4575 25.6157 39.9161C26.0587 39.3802 26.3977 38.6966 25.8618 38.2318ZM27.404 35.0489C26.9118 35.6122 26.1954 36.5419 26.8681 37.2036C27.5298 37.8544 28.5306 37.0286 28.9681 36.5364C29.4001 36.0443 34.3493 30.2365 40.611 23.9802C46.7251 17.8661 50.8376 13.9997 51.472 13.3216C52.0079 12.7474 51.9587 11.8341 51.4884 11.5443C50.9306 11.1997 50.3126 11.4185 49.547 12.1841C48.7813 12.9497 43.586 17.7021 38.686 22.6568C33.786 27.6115 28.0165 34.3435 27.404 35.0489Z" fill="#DFDFDF"/>
<path d="M57.679 22.7555C57.679 22.7555 57.3782 20.7212 56.1149 21.5196C54.7587 22.3782 55.7704 24.7079 55.7704 24.7079C55.7704 24.7079 56.279 24.2321 56.8204 23.6633C57.2688 23.1985 57.5313 22.9251 57.679 22.7555ZM52.8282 27.5407C52.8282 27.5407 52.6149 24.9321 51.1821 26.004C50.0391 26.8626 50.8157 29.4274 50.8157 29.4274C50.8157 29.4274 51.4719 28.8313 51.8985 28.4266C52.3305 28.0165 52.8282 27.5407 52.8282 27.5407ZM48.2016 31.9266C48.2016 31.9266 48.0376 29.761 46.7524 30.4774C45.4673 31.1938 46.3258 33.7532 46.3258 33.7532C46.3258 33.7532 46.8946 33.2391 47.2774 32.8563C47.6602 32.4735 48.2016 31.9266 48.2016 31.9266ZM42.9626 36.9907C42.9626 36.9907 42.8641 34.836 41.6009 35.4102C40.2884 36.0063 41.0759 38.768 41.0759 38.768C41.0759 38.768 41.7157 38.1719 42.0712 37.8383C42.4321 37.5102 42.9626 36.9907 42.9626 36.9907Z" fill="#3B5361"/>
</svg>
