<svg width="43" height="36" viewBox="0 0 43 36" fill="none" xmlns="http://www.w3.org/2000/svg">
<path d="M17.272 0.0239944L10.872 26.008L9.336 18.584C11.8107 18.584 13.8587 19.352 15.48 20.888C17.1013 22.424 17.912 24.472 17.912 27.032C17.912 29.592 17.1013 31.6827 15.48 33.304C13.8587 34.9253 11.8533 35.736 9.464 35.736C6.98933 35.736 4.94133 34.9253 3.32 33.304C1.69867 31.5973 0.888 29.5067 0.888 27.032C0.888 26.1787 0.930667 25.368 1.016 24.6C1.18667 23.832 1.44267 22.936 1.784 21.912C2.12533 20.8027 2.59467 19.48 3.192 17.944L9.208 0.0239944H17.272ZM41.464 0.0239944L35.064 26.008L33.528 18.584C36.0027 18.584 38.0507 19.352 39.672 20.888C41.2933 22.424 42.104 24.472 42.104 27.032C42.104 29.592 41.2933 31.6827 39.672 33.304C38.0507 34.9253 36.0453 35.736 33.656 35.736C31.1813 35.736 29.1333 34.9253 27.512 33.304C25.8907 31.5973 25.08 29.5067 25.08 27.032C25.08 26.1787 25.1227 25.368 25.208 24.6C25.3787 23.832 25.6347 22.936 25.976 21.912C26.3173 20.8027 26.7867 19.48 27.384 17.944L33.4 0.0239944H41.464Z" fill="#EB3800"/>
</svg>
