<svg width="80" height="80" viewBox="0 0 80 80" fill="none" xmlns="http://www.w3.org/2000/svg">
<g filter="url(#filter0_dd_56_693)">
<path d="M69.6424 21.6875H56.8674C56.2424 21.6875 55.7174 22.1125 55.5424 22.7125C55.0674 24.3375 53.5424 25.5375 51.7674 25.5375C49.9924 25.5375 48.4674 24.3625 47.9924 22.7125C47.9134 22.4206 47.7413 22.1625 47.5021 21.9775C47.2629 21.7924 46.9698 21.6906 46.6674 21.6875H10.5924C7.56743 21.6875 5.11743 24.1375 5.11743 27.1625V52.8375C5.11743 55.8625 7.56743 58.3125 10.5924 58.3125H46.6674C47.2924 58.3125 47.8174 57.8875 47.9924 57.2875C48.4674 55.6625 49.9924 54.4625 51.7674 54.4625C53.5424 54.4625 55.0674 55.6375 55.5424 57.2875C55.7174 57.8875 56.2424 58.3125 56.8674 58.3125H69.6424C72.6674 58.3125 75.1174 55.8625 75.1174 52.8375V27.1625C75.1174 24.1375 72.6674 21.6875 69.6424 21.6875ZM51.7674 50.1125C49.5924 50.1125 47.8174 48.3375 47.8174 46.1625C47.8174 43.9875 49.5924 42.2125 51.7674 42.2125C53.9424 42.2125 55.7174 43.9875 55.7174 46.1625C55.7174 48.3375 53.9424 50.1125 51.7674 50.1125ZM51.7674 37.8125C49.5924 37.8125 47.8174 36.0375 47.8174 33.8625C47.8174 31.6875 49.5924 29.9125 51.7674 29.9125C53.9424 29.9125 55.7174 31.6875 55.7174 33.8625C55.7174 36.0375 53.9424 37.8125 51.7674 37.8125Z" fill="url(#paint0_linear_56_693)"/>
</g>
<path d="M69.6424 21.6875H56.8674C56.2424 21.6875 55.7174 22.1125 55.5424 22.7125C55.0674 24.3375 53.5424 25.5375 51.7674 25.5375C49.9924 25.5375 48.4674 24.3625 47.9924 22.7125C47.9134 22.4206 47.7413 22.1625 47.5021 21.9775C47.2629 21.7924 46.9698 21.6906 46.6674 21.6875H10.5924C7.56743 21.6875 5.11743 24.1375 5.11743 27.1625V52.8375C5.11743 55.8625 7.56743 58.3125 10.5924 58.3125H46.6674C47.2924 58.3125 47.8174 57.8875 47.9924 57.2875C48.4674 55.6625 49.9924 54.4625 51.7674 54.4625C53.5424 54.4625 55.0674 55.6375 55.5424 57.2875C55.7174 57.8875 56.2424 58.3125 56.8674 58.3125H69.6424C72.6674 58.3125 75.1174 55.8625 75.1174 52.8375V27.1625C75.1174 24.1375 72.6674 21.6875 69.6424 21.6875ZM51.7674 50.1125C49.5924 50.1125 47.8174 48.3375 47.8174 46.1625C47.8174 43.9875 49.5924 42.2125 51.7674 42.2125C53.9424 42.2125 55.7174 43.9875 55.7174 46.1625C55.7174 48.3375 53.9424 50.1125 51.7674 50.1125ZM51.7674 37.8125C49.5924 37.8125 47.8174 36.0375 47.8174 33.8625C47.8174 31.6875 49.5924 29.9125 51.7674 29.9125C53.9424 29.9125 55.7174 31.6875 55.7174 33.8625C55.7174 36.0375 53.9424 37.8125 51.7674 37.8125Z" fill="url(#paint1_linear_56_693)"/>
<path d="M39.2424 45.2875H15.6424C15.4586 45.2875 15.2765 45.2513 15.1067 45.181C14.9368 45.1106 14.7825 45.0075 14.6525 44.8775C14.5225 44.7475 14.4194 44.5932 14.349 44.4233C14.2786 44.2534 14.2424 44.0714 14.2424 43.8875C14.2424 43.7037 14.2786 43.5216 14.349 43.3518C14.4194 43.1819 14.5225 43.0276 14.6525 42.8976C14.7825 42.7676 14.9368 42.6645 15.1067 42.5941C15.2765 42.5238 15.4586 42.4875 15.6424 42.4875H39.2174C39.9924 42.4875 40.6174 43.1125 40.6174 43.8875C40.6208 44.0702 40.5876 44.2517 40.52 44.4214C40.4524 44.5911 40.3517 44.7457 40.2236 44.876C40.0956 45.0064 39.9429 45.1099 39.7745 45.1805C39.606 45.2512 39.4251 45.2876 39.2424 45.2875ZM39.2424 50.8125H15.6424C15.2711 50.8125 14.915 50.665 14.6525 50.4025C14.3899 50.1399 14.2424 49.7838 14.2424 49.4125C14.2424 49.0412 14.3899 48.6851 14.6525 48.4226C14.915 48.16 15.2711 48.0125 15.6424 48.0125H39.2174C39.9924 48.0125 40.6174 48.6375 40.6174 49.4125C40.6424 50.1625 39.9924 50.8125 39.2424 50.8125Z" fill="#D88B4C"/>
<path d="M26.5424 33.6125H16.3674C16.0884 33.6125 15.812 33.5576 15.5542 33.4508C15.2964 33.344 15.0622 33.1875 14.8648 32.9902C14.6675 32.7928 14.511 32.5586 14.4042 32.3008C14.2974 32.0429 14.2424 31.7666 14.2424 31.4875C14.2424 31.2085 14.2974 30.9322 14.4042 30.6743C14.511 30.4165 14.6675 30.1823 14.8648 29.9849C15.0622 29.7876 15.2964 29.6311 15.5542 29.5243C15.812 29.4175 16.0884 29.3625 16.3674 29.3625H26.5424C27.7174 29.3625 28.6674 30.3125 28.6674 31.4875C28.6674 32.6875 27.7174 33.6125 26.5424 33.6125ZM68.7174 41.6626H63.1674C62.2674 41.6626 61.5424 42.3876 61.5424 43.2876V48.8375C61.5424 49.7375 62.2674 50.4625 63.1674 50.4625H68.7174C69.6174 50.4625 70.3424 49.7375 70.3424 48.8375V43.2876C70.3424 42.3876 69.6174 41.6626 68.7174 41.6626Z" fill="#D6894C"/>
<defs>
<filter id="filter0_dd_56_693" x="4.11743" y="20.3875" width="72" height="39.225" filterUnits="userSpaceOnUse" color-interpolation-filters="sRGB">
<feFlood flood-opacity="0" result="BackgroundImageFix"/>
<feColorMatrix in="SourceAlpha" type="matrix" values="0 0 0 0 0 0 0 0 0 0 0 0 0 0 0 0 0 0 127 0" result="hardAlpha"/>
<feOffset dy="0.3"/>
<feGaussianBlur stdDeviation="0.5"/>
<feComposite in2="hardAlpha" operator="out"/>
<feColorMatrix type="matrix" values="0 0 0 0 0.866667 0 0 0 0 0.745098 0 0 0 0 0.270588 0 0 0 1 0"/>
<feBlend mode="normal" in2="BackgroundImageFix" result="effect1_dropShadow_56_693"/>
<feColorMatrix in="SourceAlpha" type="matrix" values="0 0 0 0 0 0 0 0 0 0 0 0 0 0 0 0 0 0 127 0" result="hardAlpha"/>
<feOffset dy="-0.3"/>
<feGaussianBlur stdDeviation="0.5"/>
<feComposite in2="hardAlpha" operator="out"/>
<feColorMatrix type="matrix" values="0 0 0 0 0.815686 0 0 0 0 0.588235 0 0 0 0 0.286275 0 0 0 1 0"/>
<feBlend mode="normal" in2="effect1_dropShadow_56_693" result="effect2_dropShadow_56_693"/>
<feBlend mode="normal" in="SourceGraphic" in2="effect2_dropShadow_56_693" result="shape"/>
</filter>
<linearGradient id="paint0_linear_56_693" x1="72.1774" y1="47.85" x2="12.6474" y2="47.85" gradientUnits="userSpaceOnUse">
<stop stop-color="#EB3800"/>
<stop offset="1" stop-color="#F3C240"/>
</linearGradient>
<linearGradient id="paint1_linear_56_693" x1="75.7674" y1="41.365" x2="68.9349" y2="41.365" gradientUnits="userSpaceOnUse">
<stop stop-color="#EB3800"/>
<stop offset="1" stop-color="#FFF250" stop-opacity="0"/>
</linearGradient>
</defs>
</svg>
