<svg width="20" height="15" viewBox="0 0 20 15" fill="none" xmlns="http://www.w3.org/2000/svg">
<path d="M17.9452 3.71679C17.9585 3.86963 17.9585 4.02159 17.9585 4.17356C17.9585 8.82421 13.8337 14.1832 6.29554 14.1832C3.97313 14.1832 1.81559 13.6059 0 12.6033C0.329737 12.6356 0.647262 12.6469 0.99023 12.6469C2.83533 12.6507 4.62818 12.1213 6.07979 11.1439C5.22432 11.1306 4.39505 10.8884 3.70775 10.4511C3.02046 10.0137 2.50945 9.40316 2.24608 8.70456C2.49949 8.73688 2.75392 8.75871 3.02056 8.75871C3.38795 8.75871 3.75738 8.71504 4.10035 8.63906C3.17195 8.4782 2.33714 8.04635 1.73786 7.41695C1.13857 6.78755 0.811819 5.99945 0.813149 5.18666V5.14299C1.35966 5.40413 1.99369 5.56744 2.66538 5.58928C2.10268 5.26839 1.64128 4.83297 1.32235 4.32185C1.00342 3.81073 0.836875 3.23981 0.837574 2.66002C0.837574 2.00675 1.0401 1.40762 1.39528 0.885349C2.42534 1.9727 3.71006 2.86226 5.16623 3.4964C6.6224 4.13055 8.21755 4.49514 9.84836 4.56657C9.78526 4.30456 9.74659 4.03295 9.74659 3.76046C9.74632 3.29842 9.85217 2.84086 10.0581 2.41394C10.264 1.98703 10.5659 1.59913 10.9467 1.27241C11.3274 0.945699 11.7794 0.686581 12.2769 0.509871C12.7743 0.333161 13.3075 0.242325 13.8459 0.242554C15.0265 0.242554 16.092 0.667008 16.841 1.35347C17.7588 1.20117 18.6389 0.913665 19.4423 0.503689C19.1364 1.31663 18.4956 2.00596 17.6399 2.44255C18.4539 2.36288 19.2494 2.17919 20 1.89758C19.4394 2.59897 18.7447 3.21403 17.9452 3.71679Z" fill="white"/>
</svg>
