<svg width="128" height="12" viewBox="0 0 128 12" fill="none" xmlns="http://www.w3.org/2000/svg">
<path d="M27.3818 7.7983H28.6568V11.6409H18.214V10.2282H19.6712V1.75179H17.3033L14.2677 11.6409H11.8391L9.34987 3.44708L6.79991 11.6409H4.37137L1.3357 1.75179H0V0.395566H5.64635V1.8083H4.00709L6.07135 8.58943L8.49989 0.395566H10.9891L13.4784 8.64594L15.4819 1.8083H13.782V0.395566H28.4746V4.06868H27.1996L27.0782 3.6166C26.7139 2.26038 26.2889 1.8083 25.1354 1.8083H22.2818V5.19887H25.7425C25.8639 5.42491 25.9247 5.70745 25.9247 5.99C25.9247 6.27255 25.8639 6.55509 25.7425 6.78113H22.2818V10.2847H25.2568C26.4104 10.2847 26.8961 9.83264 27.2603 8.4199L27.3818 7.7983ZM38.3709 8.3634C38.0066 9.77613 37.5209 10.2282 36.3674 10.2282H33.9388V1.75179H35.5781V0.395566H29.871V1.8083H31.3281V10.2847H29.871V11.6975H39.7066V7.85481H38.4316L38.3709 8.3634ZM49.2993 8.3634C48.9351 9.77613 48.4493 10.2282 47.2958 10.2282H44.8673V1.75179H46.5065V0.395566H40.7994V1.8083H42.2566V10.2847H40.7994V11.6975H50.635V7.85481H49.3601L49.2993 8.3634ZM58.4064 5.02934L56.2207 4.57726C54.9457 4.29472 54.3993 3.84264 54.3993 3.05151C54.3993 2.09085 55.1885 1.52575 56.8278 1.52575C58.4064 1.52575 59.3778 2.03434 59.7421 3.33406L59.9242 3.89915H61.1992V1.07368C59.8635 0.395566 58.3456 0.0565094 56.7671 0.0565094C53.7921 0.0565094 51.91 1.35623 51.91 3.50358C51.91 5.14236 53.0029 6.38557 55.1278 6.78113L57.3135 7.23321C58.7099 7.51575 59.2563 8.02434 59.2563 8.87198C59.2563 9.94566 58.4064 10.5108 56.7064 10.5108C54.7636 10.5108 53.7921 9.77613 53.3671 8.4199L53.1243 7.74179H51.8493V10.9063C53.4279 11.6409 55.1885 11.98 56.9492 11.98C59.8635 11.98 61.7456 10.6238 61.7456 8.53292C61.7456 6.72462 60.592 5.53792 58.4064 5.02934ZM75.1633 1.75179C76.3168 1.75179 76.7418 2.20387 77.1061 3.56009L77.2275 4.01217H78.5025V0.395566H67.9991V1.8083H69.4562V10.2847H67.9991V11.6975H73.7669V10.2847H72.0062V7.00717H75.5883C75.7097 6.78113 75.7704 6.49858 75.7704 6.21604C75.7704 5.93349 75.7097 5.70745 75.5883 5.42491H72.0062V1.75179H75.1633ZM101.574 10.3977C101.756 10.7933 101.756 11.3019 101.574 11.6975C101.149 11.754 100.663 11.754 100.238 11.754C98.538 11.754 97.7487 11.1324 97.5665 9.6066L97.5058 9.04151C97.3237 7.40274 96.7166 6.78113 94.8344 6.78113H93.863V10.2282H95.5023V11.6409H84.5739V10.2282H85.9703L85.181 8.19387H80.6882L79.8989 10.2282H81.356V11.6409H76.7418V10.2282H77.9561L82.206 0.339057H84.5131L88.8238 10.2282H91.1916V1.75179H89.7345V0.395566H96.7166C99.2058 0.395566 100.784 1.52575 100.784 3.39057C100.784 5.19887 99.1451 6.15953 97.6273 6.27255V6.32906C99.2058 6.44208 99.8737 7.28972 99.9951 8.53292L100.056 9.15453C100.177 10.1152 100.359 10.5108 101.149 10.5108C101.331 10.4542 101.452 10.3977 101.574 10.3977ZM84.6346 6.89415L82.9346 2.59943L81.2346 6.89415H84.6346ZM98.2344 3.56009C98.2344 2.3734 97.4451 1.75179 95.8666 1.75179H93.8023V5.42491H95.8666C97.3844 5.42491 98.2344 4.74679 98.2344 3.56009ZM108.556 6.49858C108.556 6.78113 108.616 7.06368 108.738 7.28972H110.802V10.1717C110.134 10.3977 109.466 10.5673 108.738 10.5673C106.249 10.5673 104.913 8.92849 104.913 6.04651C104.913 3.16453 106.188 1.52575 108.556 1.52575C109.952 1.46925 111.166 2.26038 111.591 3.50358L111.774 3.95566H113.048V1.01717C111.652 0.339056 110.074 0 108.434 0C104.609 0 102.059 2.3734 102.059 5.99C102.059 9.66311 104.549 11.98 108.434 11.98C110.134 11.9235 111.774 11.5279 113.291 10.7933V5.76396H108.677C108.616 5.99 108.556 6.27255 108.556 6.49858ZM127.863 5.99C127.863 9.32406 124.948 11.98 121.427 11.98C117.845 11.98 114.991 9.32406 114.991 5.99C114.991 2.65594 117.906 0 121.427 0C125.009 0 127.863 2.71245 127.863 5.99ZM125.009 5.99C125.009 3.10802 123.734 1.46925 121.427 1.46925C119.12 1.46925 117.845 3.10802 117.845 5.99C117.845 8.87198 119.12 10.5108 121.427 10.5108C123.734 10.5108 125.009 8.87198 125.009 5.99Z" fill="#828282"/>
</svg>
