<svg width="65" height="65" viewBox="0 0 65 65" fill="none" xmlns="http://www.w3.org/2000/svg">
<g clip-path="url(#clip0_56_716)">
<path d="M32.5 0C14.5626 0 0 14.5626 0 32.5C0 50.4374 14.5626 65 32.5 65C50.4049 65 64.9421 50.4894 64.9948 32.5962C64.9981 32.5642 64.9999 32.5321 65 32.5C65 32.4711 64.9987 32.4423 64.9961 32.4135C64.9493 14.5158 50.4088 0 32.5 0ZM32.5 1.95C32.7925 1.95 33.0804 1.963 33.371 1.97145C33.8864 2.0826 34.3375 2.19895 34.5429 2.3296C35.3021 2.13395 35.4848 2.1151 35.4438 2.09365C39.1371 2.44498 42.7347 3.47029 46.0583 5.11875C46.057 5.21365 46.0584 5.31245 46.074 5.43595C44.917 5.72195 47.5637 7.9404 46.5055 9.3197C46.3658 11.2222 44.1187 13.533 43.0573 13.4199C44.4262 15.2399 44.1818 18.4496 41.7995 18.1948C40.0153 18.2578 39.219 20.0518 37.9502 21.0067C38.5235 19.253 36.894 19.1353 37.0955 17.8444C35.9645 18.6452 36.0821 19.1574 35.0974 17.7229C36.0984 16.9871 34.5748 15.1716 34.1913 14.9799C33.2962 15.4836 32.3609 15.2236 33.7519 16.2864C30.2204 17.3329 35.2222 19.7379 33.2592 22.0064C32.0437 24.8859 29.12 26.5349 26.1319 26.8924C26.9964 28.8788 23.0652 29.978 24.5817 27.5262C25.5261 25.6256 20.8754 28.3432 23.4949 29.4495C25.077 30.745 25.5638 34.032 23.151 34.7483C21.786 36.3129 21.1815 35.4666 20.2098 34.0808C19.1496 31.0466 17.2165 34.2212 18.705 35.8553C20.7805 37.4959 20.8325 39.4478 21.5163 41.5629C20.9853 43.041 25.2154 43.366 23.2238 44.1304C20.5569 44.1824 25.0068 46.9124 25.5326 45.6664C27.0289 46.4795 30.2711 46.2839 28.6481 47.1061C30.4434 47.318 33.525 47.6847 31.393 45.2797C30.628 44.0538 31.2058 41.7339 32.9238 40.7543C34.3603 42.2805 36.5794 38.7263 36.0269 41.1326C34.8744 42.0491 34.0541 42.8889 36.1868 42.965C37.0461 44.8467 39.3653 43.1632 38.9415 41.8879C40.1804 41.5389 42.7505 41.9425 43.9348 42.3923C45.8959 42.3904 49.1107 42.82 49.946 44.1863C50.6207 43.3673 52.8099 43.9289 52.1865 42.4242C51.0328 42.0049 51.6191 40.4612 52.6591 41.8918C54.0689 41.9854 54.9315 44.354 56.7008 44.3267C58.0463 46.7135 55.0829 45.1776 55.4801 44.6036C54.4687 46.9111 54.067 41.4563 53.0536 43.6033C51.9389 44.2045 49.3441 45.9628 51.6113 45.8692C53.0978 45.3251 51.3103 48.9047 49.673 47.0554C47.6203 44.7564 46.2592 49.1458 48.1416 49.7646C48.2014 51.3051 49.5092 52.2223 50.1241 53.4944C51.7445 55.109 48.061 57.6934 46.7441 58.9836C46.1136 59.2501 45.4701 59.9098 44.8617 60.4409C44.3274 60.6775 43.7872 60.9017 43.238 61.1078C43.0365 61.0064 42.8499 60.7997 42.6829 60.435C40.9266 60.3479 39.7969 59.0941 37.7598 59.1045C35.0324 59.3131 31.8038 61.1065 29.3423 59.8747C29.5464 58.1119 25.8076 55.1297 29.4203 54.3257C32.2263 54.522 33.5699 52.2808 35.581 50.8982C36.9466 50.1748 38.961 51.7523 38.9135 49.5547C39.0026 48.2027 43.0254 48.8657 43.522 48.9541C42.9676 50.7241 42.5763 51.4566 44.9286 51.2804C45.3154 52.5629 47.2413 47.4844 46.1617 47.4519C45.2588 46.6505 42.679 47.645 44.6862 46.0369C43.745 43.7989 40.3617 45.8965 40.287 43.2679C38.4748 43.0729 41.9757 45.9816 39.2119 44.5074C36.7952 45.4863 35.6044 43.3654 33.5471 43.4116C34.6339 44.4893 35.943 46.9514 33.5575 46.0089C32.199 43.8334 32.5955 46.7148 33.0941 47.2712C33.4061 45.656 33.5049 48.3483 34.9362 47.1315C36.0763 46.1474 39.8996 47.6255 37.3321 47.3655C37.6278 47.5592 32.5617 50.7903 34.3622 48.2755C34.3752 47.4955 31.8461 48.5381 33.5471 48.8832C31.718 49.1809 29.6218 47.6716 27.4345 47.7321C24.9359 47.45 22.2469 47.1133 20.564 45.071C19.266 43.1899 17.2451 43.6026 16.9481 41.0072C16.5074 39.7267 14.9844 38.0724 15.1469 36.7341C16.9195 36.5391 19.2751 41.0241 18.096 37.4549C16.8506 35.9112 16.471 33.5666 17.1307 31.7167C17.3205 29.8369 16.5561 29.859 15.3348 30.1119C15.0124 28.6461 15.351 24.7409 12.582 25.8544C11.0168 27.5314 8.2134 28.47 8.15815 31.0024C7.42365 31.9949 9.64015 36.491 7.4659 35.1929C7.60955 33.2982 7.25465 33.7005 6.47595 33.7057C5.681 30.9322 5.7226 27.9045 6.0658 25.118C4.64685 23.7887 6.9225 22.0649 4.2913 21.7217C3.69525 20.5354 3.8155 24.2001 2.79175 25.3812C5.99625 11.9385 18.0687 1.95 32.5 1.95ZM43.4804 4.9829C43.4161 4.97647 43.3512 4.97865 43.2874 4.9894C42.9949 5.0401 42.809 5.2884 43.0599 5.75965C41.3192 5.03165 36.881 6.7132 40.5879 7.65635C40.4482 6.6898 43.9777 10.3304 42.378 10.0015C43.1047 10.9265 43.2237 11.2736 42.6374 11.2105C42.9045 11.8085 43.6624 12.0101 44.2364 11.7624C47.1809 10.5807 45.7379 7.8715 44.0921 6.2725C44.4977 5.48405 43.9497 5.02775 43.4804 4.9829ZM50.8599 8.0756C51.0159 8.1926 51.1654 8.3174 51.3195 8.437C50.7761 8.36355 50.7435 8.24135 50.8599 8.0756ZM41.0839 8.80815C41.0072 8.7815 41.0306 9.0753 41.2334 9.88455C41.0917 12.2869 39.0169 12.9252 37.5245 13.5752C35.5127 14.974 38.3214 15.8541 37.8547 17.7671C37.6707 18.1116 38.2902 18.12 38.3032 17.8483C39.3172 16.25 40.8759 16.9253 41.6702 15.7098C43.0703 15.5668 41.392 13.2112 42.3007 12.4163C42.4346 11.8508 41.312 8.8881 41.0839 8.80815ZM33.1292 24.0363C33.5536 24.0643 33.7889 24.5173 33.2306 25.6418C32.979 26.1508 33.4932 26.8638 32.2237 26.2918C31.1876 25.1218 32.4213 23.9889 33.1292 24.0363ZM32.9309 28.1534C33.5777 28.0884 34.2218 28.8827 33.954 30.2646C32.3687 31.4606 35.8286 31.4951 35.6544 32.7541C36.8264 33.9267 38.0445 38.6041 35.2579 38.1647C34.0957 35.4971 33.3794 39.0247 31.5107 38.92C29.536 39.5388 32.3771 41.0371 31.0342 41.8126C29.8603 41.9348 29.8733 45.5839 28.9672 45.0723C28.3198 44.4724 25.0763 44.9598 24.6512 43.2061C23.1744 42.3234 24.362 39.8554 23.4045 38.4156C24.3405 38.5801 24.8618 41.9971 26.0351 39.5609C28.6689 38.9447 29.4424 36.1504 31.1018 34.4766C32.7691 33.1227 31.6784 31.8214 31.8493 29.9929C31.9247 28.7742 32.4278 28.2035 32.9309 28.1534ZM32.5955 33.6641C32.1171 35.178 28.5226 36.7841 31.5282 38.0321L32.0144 38.0354L32.1678 37.8924C33.798 37.3158 33.4236 35.3145 33.4106 34.0691C32.6358 34.3128 32.8536 34.4383 32.5955 33.6641ZM38.259 40.2551C38.6145 40.2922 38.7647 40.8096 38.2148 42.0491C38.5957 42.7934 37.5778 44.0134 37.076 42.9585C36.5072 41.47 37.6675 40.194 38.259 40.2551Z" fill="url(#paint0_linear_56_716)"/>
</g>
<defs>
<linearGradient id="paint0_linear_56_716" x1="32.5" y1="0" x2="32.5" y2="65" gradientUnits="userSpaceOnUse">
<stop stop-color="#EB3800"/>
<stop offset="0.805208" stop-color="#EB3800"/>
<stop offset="1" stop-color="#EB3800" stop-opacity="0"/>
</linearGradient>
<clipPath id="clip0_56_716">
<rect width="65" height="65" fill="white"/>
</clipPath>
</defs>
</svg>
